<?xml version="1.0" encoding="utf-8"?>
<!-- Generator: Adobe Illustrator 23.0.2, SVG Export Plug-In . SVG Version: 6.00 Build 0)  -->
<svg version="1.1" id="Layer_1" xmlns="http://www.w3.org/2000/svg" xmlns:xlink="http://www.w3.org/1999/xlink" x="0px" y="0px"
	 viewBox="0 0 479 182" style="enable-background:new 0 0 479 182;" xml:space="preserve">
<style type="text/css">
	.st0{fill:#177DBC;}
</style>
<g>
	<g>
		<path class="st0" d="M87.3,95.7c-9.8,0-17.7-8-17.7-17.7s8-17.7,17.7-17.7S105,68.2,105,78S97.1,95.7,87.3,95.7 M115.3,50.2h-28
			c-15,0-27.2,12.9-27.2,27.9s12.5,27.5,27.5,27.5c0.1,0,16.4-0.4,16.2,8.7c-0.1,5.7-18.1,17.4-18.1,17.4v10.6
			c0,0,26.3-15.2,28.8-27.2c2.3-10.8-8.3-14.3-10.1-15.2c6.2-5,10.1-13.5,10.1-22c0-7-2.7-12.1-7-19h7.8V50.2L115.3,50.2z"/>
		<path class="st0" d="M41.8,37.9c1.6-1.5,3.3-2.9,5.1-4.3l-5.6-7.7c-2.1,1.6-4.1,3.3-6.1,5.1L41.8,37.9z"/>
		<path class="st0" d="M49.7,31.6c1.8-1.3,3.7-2.4,5.6-3.5l-4.5-8.4c-2.3,1.3-4.5,2.7-6.7,4.2L49.7,31.6z"/>
		<path class="st0" d="M33.3,47.3c1.9-2.4,3.9-4.7,6-6.9l-6.6-6.9c-2.5,2.6-4.9,5.3-7.1,8.1L33.3,47.3z"/>
		<path class="st0" d="M18.8,83.1c0.4-3.7,1.1-7.4,2.1-11l-9.2-2.8c-1.2,4.2-2,8.4-2.5,12.8L18.8,83.1z"/>
		<path class="st0" d="M27.2,56.5c1.2-2.2,2.6-4.4,4-6.5l-7.7-5.6c-1.7,2.5-3.3,5.1-4.8,7.7L27.2,56.5z"/>
		<path class="st0" d="M21.9,68.8c1-3.2,2.3-6.2,3.7-9.2l-8.5-4.4c-1.7,3.5-3.2,7.1-4.4,10.8L21.9,68.8z"/>
		<path class="st0" d="M58.3,26.4c5.5-2.8,11.4-4.9,17.5-6.2L74,10.8c-7.1,1.5-13.9,4-20.2,7.2L58.3,26.4z"/>
		<path class="st0" d="M148.3,136.8c-3.9,4.9-8.5,9.4-13.6,13.2l5.5,7.8c5.9-4.3,11.1-9.5,15.7-15.2L148.3,136.8z"/>
		<path class="st0" d="M77.5,10.2l1.8,9.4c2.6-0.4,5.2-0.7,7.8-0.9l-0.3-9.6C83.6,9.3,80.5,9.7,77.5,10.2"/>
		<path class="st0" d="M164.1,91.5c0,7.4-1.1,14.5-3.2,21.3l9.1,3c2.4-7.7,3.6-15.8,3.6-24.3c0-0.1,0-0.2,0-0.3L164.1,91.5
			L164.1,91.5"/>
		<path class="st0" d="M168.8,63.4l-8.9,3.5c2.4,6.6,3.9,13.7,4.2,21.1l9.6-0.2C173.2,79.2,171.5,71,168.8,63.4"/>
		<path class="st0" d="M146.2,43.7c5.1,5.9,9.4,12.6,12.4,19.9l8.9-3.5c-3.5-8.4-8.3-16.2-14.3-22.9L146.2,43.7z"/>
		<path class="st0" d="M121.3,25.1c8.5,3.9,16.1,9.3,22.5,16l7.1-6.5c-7.3-7.7-16.1-13.9-25.8-18.3L121.3,25.1z"/>
		<path class="st0" d="M116.1,170.2l-3.1-9.1c-5.4,1.7-11,2.7-16.8,3.1l0.4,9.6C103.3,173.4,109.9,172.1,116.1,170.2"/>
		<path class="st0" d="M159.9,116.1c-2.3,6.5-5.5,12.5-9.5,18l7.6,5.8c4.6-6.3,8.3-13.3,10.9-20.7L159.9,116.1z"/>
		<path class="st0" d="M131.9,152c-4.8,3.3-10.1,6-15.6,8l3.1,9.1c6.4-2.3,12.5-5.5,18.1-9.3L131.9,152z"/>
		<path class="st0" d="M90.6,18.6c0.2,0,0.4,0,0.7,0c9.5,0,18.6,1.8,26.9,5.2l3.7-8.8c-9.5-3.9-19.9-6-30.7-6c-0.3,0-0.6,0-1,0
			L90.6,18.6z"/>
		<path class="st0" d="M18.3,91.5c0-1.7,0.1-3.3,0.2-4.9L9,85.7c-0.1,1.9-0.2,3.8-0.2,5.8c0,2.3,0.1,4.6,0.3,6.9l9.5-1
			C18.4,95.5,18.3,93.5,18.3,91.5"/>
		<path class="st0" d="M92.7,164.4c-0.5,0-1,0-1.5,0c-4.9,0-9.6-0.5-14.2-1.4l-2.1,9.4c5.3,1.1,10.7,1.6,16.3,1.6c0.7,0,1.3,0,1.9,0
			L92.7,164.4z"/>
		<path class="st0" d="M21.6,113.3c-1.3-4-2.2-8.2-2.7-12.4l-9.5,1c0.6,5,1.7,9.8,3.2,14.5L21.6,113.3z"/>
		<path class="st0" d="M28.6,128.8c-2.3-3.9-4.3-8-5.8-12.2l-9.1,3.1c1.8,5,4.1,9.8,6.8,14.2L28.6,128.8z"/>
		<path class="st0" d="M54.7,154.6c-4.6-2.7-8.9-5.9-12.8-9.5l-6.6,6.9c4.5,4.2,9.5,7.9,14.9,11L54.7,154.6z"/>
		<path class="st0" d="M39.3,142.7c-3.3-3.3-6.3-7-8.9-10.9l-8.1,5.1c3,4.6,6.5,8.8,10.3,12.7L39.3,142.7z"/>
		<path class="st0" d="M73.6,162.3c-5.6-1.4-10.9-3.4-15.9-6l-4.6,8.4c5.8,3,11.9,5.4,18.4,7L73.6,162.3z"/>
	</g>
</g>
<g>
	<path d="M225.9,52c-1.6,1.9-3.8,3.4-6.8,4.4c-2.9,1-6.2,1.6-9.6,1.6c-3.7,0-6.9-0.8-9.8-2.4c-2.8-1.6-4.9-4-6.5-7
		c-1.6-3.1-2.3-6.7-2.3-10.8v-2.9c0-4.2,0.7-8,2.2-11.1c1.5-3.1,3.6-5.5,6.2-7.2c2.7-1.6,5.9-2.5,9.5-2.5c5.1,0,9.1,1.2,12,3.6
		s4.6,6,5.1,10.6h-8.6c-0.4-2.4-1.3-4.2-2.6-5.4c-1.4-1.1-3.2-1.7-5.5-1.7c-3,0-5.3,1.1-6.8,3.4s-2.3,5.6-2.3,10.1v2.8
		c0,4.5,0.9,7.9,2.6,10.2c1.7,2.3,4.2,3.5,7.5,3.5s5.7-0.7,7.1-2.1v-7.4h-8.1V35h16.9L225.9,52L225.9,52z"/>
	<path d="M247.1,58.1c-4.7,0-8.5-1.5-11.4-4.3c-2.9-2.9-4.4-6.7-4.4-11.4v-0.9c0-3.2,0.6-6.1,1.8-8.6c1.2-2.5,3-4.5,5.3-5.8
		c2.3-1.4,4.9-2.1,7.8-2.1c4.3,0,7.8,1.4,10.3,4.2c2.5,2.8,3.7,6.7,3.7,11.7v3.5h-20.3c0.3,2.1,1.1,3.7,2.5,5
		c1.4,1.3,3.1,1.9,5.3,1.9c3.3,0,5.8-1.2,7.7-3.6l4.2,4.7c-1.3,1.8-3,3.2-5.2,4.2C252.3,57.5,249.8,58.1,247.1,58.1z M246.2,31.8
		c-1.6,0-3,0.6-4.1,1.7s-1.7,2.8-2,4.9H252v-0.7c0-1.9-0.5-3.4-1.6-4.4C249.4,32.3,248,31.8,246.2,31.8z"/>
	<path d="M273,25.6l0.3,3.7c2.3-2.9,5.3-4.2,9.2-4.2c3.4,0,5.9,1,7.5,2.9c1.6,2,2.5,4.9,2.5,8.9v20.6H284V37.1
		c0-1.8-0.4-3.1-1.2-3.9c-0.8-0.8-2.1-1.2-3.9-1.2c-2.4,0-4.2,1-5.4,3v22.4H265V25.6H273z"/>
	<path d="M297.6,41.2c0-3.1,0.6-6,1.8-8.4c1.2-2.5,2.9-4.4,5.3-5.7c2.3-1.4,4.9-2,8-2c4.3,0,7.8,1.3,10.6,4s4.2,6.2,4.6,10.7
		l0.1,2.2c0,4.9-1.4,8.8-4.1,11.8s-6.4,4.4-11,4.4c-4.6,0-8.2-1.5-11-4.4c-2.8-2.9-4.1-6.9-4.1-12L297.6,41.2L297.6,41.2z
		 M306.1,41.9c0,3,0.6,5.4,1.7,6.9c1.1,1.6,2.8,2.4,4.9,2.4s3.6-0.8,4.9-2.3c1.1-1.6,1.7-4.2,1.7-7.6c0-2.9-0.6-5.3-1.7-6.9
		c-1.1-1.6-2.8-2.4-4.9-2.4c-2.1,0-3.7,0.8-4.9,2.4C306.7,35.9,306.1,38.4,306.1,41.9z"/>
	<path d="M341,25.6l0.3,3.6c2.3-2.8,5.3-4.2,9.2-4.2c4.1,0,6.9,1.6,8.4,4.9c2.3-3.2,5.5-4.9,9.5-4.9c3.5,0,6.1,1,7.7,3
		s2.5,5,2.5,9.1v20.4h-8.5V37.1c0-1.8-0.3-3.1-1-4c-0.7-0.9-1.9-1.3-3.7-1.3c-2.5,0-4.3,1.2-5.3,3.6v21.8h-8.5V37.2
		c0-1.8-0.3-3.2-1.1-4c-0.7-0.9-2-1.2-3.7-1.2c-2.4,0-4.2,1-5.2,3v22.5H333v-32H341z"/>
	<path d="M385.2,17.3c0-1.3,0.4-2.3,1.3-3.1c0.9-0.9,2-1.2,3.5-1.2c1.5,0,2.6,0.4,3.5,1.2c0.9,0.9,1.3,1.9,1.3,3.1
		c0,1.3-0.4,2.3-1.3,3.2c-0.9,0.9-2,1.2-3.5,1.2c-1.5,0-2.6-0.4-3.5-1.2C385.6,19.7,385.2,18.6,385.2,17.3z M394.2,57.5h-8.5V25.6
		h8.5V57.5z"/>
	<path d="M414.5,51.1c1.6,0,2.9-0.4,3.8-1.3c1-0.9,1.5-2,1.6-3.5h8c0,2.2-0.6,4.2-1.7,5.9c-1.1,1.8-2.8,3.2-4.8,4.2
		c-2,1-4.2,1.5-6.7,1.5c-4.6,0-8.1-1.5-10.7-4.3s-4-6.9-4-12v-0.5c0-4.9,1.3-8.8,3.9-11.8c2.6-2.9,6.2-4.4,10.7-4.4
		c4,0,7.2,1.1,9.6,3.4s3.6,5.3,3.6,9h-8c0-1.6-0.5-3-1.6-4.1c-1-1-2.3-1.6-3.9-1.6c-2,0-3.5,0.7-4.5,2.2c-1,1.5-1.6,3.8-1.6,7v0.9
		c0,3.3,0.5,5.6,1.5,7.1C410.9,50.4,412.5,51.1,414.5,51.1z"/>
</g>
<g>
	<path d="M200.8,98.4v15.1h-8.8V70.7h16.7c3.2,0,6.1,0.6,8.5,1.7c2.4,1.2,4.3,2.9,5.6,5s2,4.7,2,7.5c0,4.2-1.5,7.5-4.3,10
		s-6.8,3.6-12,3.6L200.8,98.4L200.8,98.4z M200.8,91.3h7.9c2.3,0,4.2-0.5,5.4-1.6c1.2-1.1,1.8-2.7,1.8-4.7c0-2.1-0.6-3.8-1.8-5.1
		c-1.2-1.3-2.9-2-5.1-2h-8.1L200.8,91.3L200.8,91.3z"/>
	<path d="M248.2,89.7c-1.1-0.2-2.2-0.3-3-0.3c-3.2,0-5.3,1.1-6.3,3.3v20.9h-8.5V81.7h8.1l0.3,3.8c1.7-2.9,4.1-4.4,7.1-4.4
		c1,0,1.8,0.1,2.7,0.3L248.2,89.7z"/>
	<path d="M266.4,114.1c-4.7,0-8.5-1.5-11.4-4.3c-2.9-2.9-4.4-6.7-4.4-11.4v-0.9c0-3.2,0.6-6.1,1.8-8.6c1.2-2.5,3-4.5,5.3-5.8
		c2.3-1.4,4.9-2.1,7.8-2.1c4.3,0,7.8,1.4,10.3,4.2c2.5,2.8,3.7,6.7,3.7,11.7v3.5h-20.3c0.3,2.1,1.1,3.7,2.5,5
		c1.4,1.3,3.1,1.9,5.3,1.9c3.3,0,5.8-1.2,7.7-3.6l4.2,4.7c-1.3,1.8-3,3.2-5.2,4.2C271.5,113.7,269.1,114.1,266.4,114.1z M265.4,88
		c-1.6,0-3,0.6-4.1,1.7c-1,1.1-1.7,2.8-2,4.9h11.9v-0.7c0-1.9-0.5-3.4-1.6-4.4C268.6,88.5,267.2,88,265.4,88z"/>
	<path d="M283,97.4c0-4.9,1.1-8.9,3.4-11.9c2.3-2.9,5.3-4.4,9.1-4.4c3.1,0,5.6,1.1,7.7,3.5V68.4h8.6v45.2h-7.7l-0.4-3.4
		c-2.1,2.7-4.9,4-8.2,4c-3.7,0-6.8-1.5-9-4.4C284.1,106.8,283,102.7,283,97.4z M291.5,98c0,2.9,0.5,5.3,1.6,6.8s2.5,2.4,4.5,2.4
		c2.6,0,4.5-1.1,5.5-3.3V91.3c-1-2.3-2.9-3.3-5.5-3.3C293.6,88,291.5,91.3,291.5,98z"/>
	<path d="M318.3,73.5c0-1.3,0.4-2.3,1.3-3.1c0.9-0.9,2-1.2,3.5-1.2c1.5,0,2.6,0.4,3.5,1.2c0.9,0.9,1.3,1.9,1.3,3.1
		c0,1.3-0.4,2.3-1.3,3.2c-0.9,0.9-2,1.2-3.5,1.2c-1.5,0-2.6-0.4-3.5-1.2C318.7,75.8,318.3,74.8,318.3,73.5z M327.3,113.6h-8.5V81.7
		h8.5V113.6z"/>
	<path d="M347.6,107.3c1.6,0,2.9-0.4,3.8-1.3c1-0.9,1.5-2,1.6-3.5h8c0,2.2-0.6,4.2-1.7,5.9c-1.1,1.8-2.8,3.2-4.8,4.2
		c-2,1-4.2,1.5-6.7,1.5c-4.6,0-8.1-1.5-10.7-4.3c-2.6-2.9-4-6.9-4-12v-0.5c0-4.9,1.3-8.8,3.9-11.8s6.2-4.4,10.7-4.4
		c4,0,7.2,1.1,9.6,3.4c2.4,2.3,3.6,5.3,3.6,9h-8c0-1.6-0.5-3-1.6-4.1c-1-1-2.3-1.6-3.9-1.6c-2,0-3.5,0.7-4.5,2.2
		c-1,1.5-1.6,3.8-1.6,7v0.9c0,3.3,0.5,5.6,1.5,7.1C344,106.6,345.6,107.3,347.6,107.3z"/>
	<path d="M376,73.9v7.8h5.5V88H376v15.9c0,1.2,0.3,2,0.7,2.5c0.4,0.5,1.3,0.8,2.6,0.8c1,0,1.7-0.1,2.5-0.2v6.4
		c-1.6,0.5-3.4,0.8-5.1,0.8c-6,0-9-3-9.1-9V88h-4.7v-6.2h4.7v-7.8H376L376,73.9z"/>
	<path d="M386.1,73.5c0-1.3,0.4-2.3,1.3-3.1c0.9-0.9,2-1.2,3.5-1.2c1.5,0,2.6,0.4,3.5,1.2c0.9,0.9,1.3,1.9,1.3,3.1
		c0,1.3-0.4,2.3-1.3,3.2c-0.9,0.9-2,1.2-3.5,1.2c-1.5,0-2.6-0.4-3.5-1.2C386.6,75.8,386.1,74.8,386.1,73.5z M395.1,113.6h-8.5V81.7
		h8.5V113.6z"/>
	<path d="M400.9,97.3c0-3.1,0.6-6,1.8-8.4c1.2-2.5,2.9-4.4,5.3-5.7c2.3-1.4,4.9-2,8-2c4.3,0,7.8,1.3,10.6,4
		c2.7,2.6,4.2,6.2,4.6,10.7l0.1,2.2c0,4.9-1.4,8.8-4.1,11.8s-6.4,4.4-11,4.4s-8.2-1.5-11-4.4s-4.1-6.9-4.1-12v-0.5H400.9z
		 M409.4,97.9c0,3,0.6,5.4,1.7,6.9c1.1,1.6,2.8,2.4,4.9,2.4s3.6-0.8,4.9-2.3c1.1-1.6,1.7-4.2,1.7-7.6c0-2.9-0.6-5.3-1.7-6.9
		c-1.1-1.6-2.8-2.4-4.9-2.4c-2.1,0-3.7,0.8-4.9,2.4C409.9,92,409.4,94.5,409.4,97.9z"/>
	<path d="M444.1,81.7l0.3,3.7c2.3-2.9,5.3-4.2,9.2-4.2c3.4,0,5.9,1,7.5,2.9c1.6,2,2.5,4.9,2.5,8.9v20.6h-8.5V93.3
		c0-1.8-0.4-3.1-1.2-3.9c-0.8-0.8-2.1-1.2-3.9-1.2c-2.4,0-4.2,1-5.4,3v22.4h-8.5v-32H444.1z"/>
</g>
<g>
	<path class="st0" d="M208.9,151.7c-0.3,2.5-1.2,4.5-2.8,5.8c-1.6,1.4-3.6,2-6.2,2c-1.8,0-3.4-0.4-4.8-1.3c-1.4-0.9-2.4-2.2-3.2-3.8
		c-0.8-1.6-1.1-3.6-1.1-5.6v-3.1c0-2.2,0.3-4.1,1.1-5.7c0.8-1.6,1.8-2.9,3.2-3.8c1.4-0.9,3-1.4,4.9-1.4c2.6,0,4.6,0.7,6.2,2.1
		c1.5,1.4,2.3,3.3,2.6,5.8h-2.1c-0.5-4.1-2.8-6.2-6.7-6.2c-2.2,0-3.9,0.8-5.2,2.4c-1.3,1.6-2,3.9-2,6.8v2.9c0,2.8,0.6,5,1.9,6.7
		c1.3,1.6,2.9,2.5,5.1,2.5s3.7-0.5,4.9-1.6c1-1,1.7-2.6,2-4.6L208.9,151.7L208.9,151.7z"/>
	<path class="st0" d="M215.6,159.2h-2v-25.5h2V159.2z"/>
	<path class="st0" d="M220.9,136.1c0-0.3,0.1-0.7,0.3-1c0.3-0.3,0.6-0.3,1-0.3s0.8,0.1,1,0.3c0.3,0.3,0.3,0.6,0.3,1
		c0,0.3-0.1,0.7-0.3,1c-0.3,0.3-0.6,0.3-1,0.3s-0.8-0.1-1-0.3C221,136.8,220.9,136.5,220.9,136.1z M223.2,159.2h-2v-17.9h2V159.2z"
		/>
	<path class="st0" d="M230.5,141.2l0.1,3c0.7-1.1,1.5-2,2.5-2.5c1-0.6,2.1-0.9,3.3-0.9c1.9,0,3.4,0.5,4.3,1.6c1,1,1.4,2.7,1.4,4.9
		v11.8h-2v-11.8c0-1.6-0.3-2.8-1-3.6c-0.7-0.8-1.7-1.2-3.2-1.2c-1.2,0-2.3,0.3-3.3,1.1c-1,0.8-1.6,1.8-2.1,3.1v12.3h-2v-17.9
		L230.5,141.2L230.5,141.2z"/>
	<path class="st0" d="M247.1,136.1c0-0.3,0.1-0.7,0.3-1s0.6-0.3,1-0.3s0.8,0.1,1,0.3c0.3,0.3,0.3,0.6,0.3,1c0,0.3-0.1,0.7-0.3,1
		c-0.3,0.3-0.6,0.3-1,0.3s-0.8-0.1-1-0.3C247.2,136.8,247.1,136.5,247.1,136.1z M249.5,159.2h-2v-17.9h2V159.2z"/>
	<path class="st0" d="M261.5,157.9c1.4,0,2.5-0.3,3.5-1.1c1-0.8,1.5-1.8,1.5-3h1.9c-0.1,1.1-0.4,2.1-1,3c-0.6,0.9-1.5,1.6-2.5,2.1
		c-1,0.5-2.2,0.8-3.4,0.8c-2.3,0-4.2-0.8-5.5-2.4c-1.4-1.6-2.1-3.8-2.1-6.6V150c0-1.7,0.3-3.3,1-4.7c0.6-1.4,1.5-2.4,2.7-3.1
		c1.1-0.8,2.5-1.1,4.1-1.1c2,0,3.6,0.6,4.9,1.7s2,2.7,2.1,4.6h-1.9c-0.1-1.4-0.6-2.5-1.5-3.4c-1-0.9-2.1-1.3-3.5-1.3
		c-1.8,0-3.2,0.6-4.2,1.9c-1,1.3-1.5,3.1-1.5,5.5v0.6c0,2.3,0.5,4.1,1.5,5.4C258.3,157.3,259.7,157.9,261.5,157.9z"/>
	<path class="st0" d="M283.7,159.2c-0.2-0.5-0.3-1.4-0.3-2.5c-0.7,0.9-1.6,1.6-2.7,2.1c-1,0.5-2.3,0.7-3.4,0.7
		c-1.7,0-3.1-0.5-4.2-1.5c-1-1-1.6-2.2-1.6-3.6c0-1.7,0.7-3.1,2.2-4.2c1.5-1,3.5-1.6,6.1-1.6h3.6v-2.1c0-1.3-0.4-2.3-1.2-3
		c-0.8-0.7-1.9-1.1-3.5-1.1c-1.4,0-2.5,0.3-3.5,1c-1,0.7-1.4,1.6-1.4,2.6h-2c0-1.4,0.7-2.7,2-3.7s2.9-1.6,4.9-1.6
		c2,0,3.6,0.5,4.8,1.5c1.1,1,1.7,2.4,1.7,4.2v8.5c0,1.7,0.2,3,0.5,3.9v0.2L283.7,159.2L283.7,159.2z M277.5,157.8
		c1.3,0,2.5-0.3,3.6-1c1-0.6,1.8-1.5,2.3-2.6v-4h-3.6c-2,0-3.6,0.3-4.7,1.1c-1.1,0.7-1.6,1.6-1.6,2.9c0,1,0.3,1.8,1.1,2.5
		C275.3,157.4,276.3,157.8,277.5,157.8z"/>
	<path class="st0" d="M292.7,159.2h-2v-25.5h2V159.2z"/>
	<path class="st0" d="M308.9,157.5h12v1.7h-14v-24.1h2.1L308.9,157.5L308.9,157.5z"/>
	<path class="st0" d="M335.6,159.2c-0.2-0.5-0.3-1.4-0.3-2.5c-0.7,0.9-1.6,1.6-2.7,2.1c-1,0.5-2.3,0.7-3.4,0.7
		c-1.7,0-3.1-0.5-4.2-1.5c-1-1-1.6-2.2-1.6-3.6c0-1.7,0.7-3.1,2.2-4.2c1.5-1,3.5-1.6,6.1-1.6h3.6v-2.1c0-1.3-0.4-2.3-1.2-3
		c-0.8-0.8-1.9-1.1-3.5-1.1c-1.4,0-2.5,0.3-3.5,1c-0.9,0.7-1.4,1.6-1.4,2.6h-2c0-1.4,0.7-2.7,2-3.7c1.3-1,2.9-1.6,4.9-1.6
		c2,0,3.6,0.5,4.8,1.5c1.1,1,1.7,2.4,1.7,4.2v8.5c0,1.7,0.2,3,0.5,3.9v0.2L335.6,159.2L335.6,159.2z M329.4,157.8
		c1.3,0,2.5-0.3,3.6-1c1-0.6,1.8-1.5,2.3-2.6v-4h-3.6c-2,0-3.6,0.3-4.7,1.1c-1.1,0.7-1.6,1.6-1.6,2.9c0,1,0.3,1.8,1.1,2.5
		C327.2,157.4,328.2,157.8,329.4,157.8z"/>
	<path class="st0" d="M356.9,150.4c0,2.8-0.6,5-1.8,6.7c-1.2,1.6-2.9,2.4-5,2.4c-2.5,0-4.4-1-5.6-2.8l-0.1,2.4h-1.8v-25.5h2v10.2
		c1.2-2,3.1-2.9,5.6-2.9c2.2,0,3.8,0.8,5,2.4c1.2,1.6,1.8,3.9,1.8,6.8L356.9,150.4L356.9,150.4z M354.9,150.1c0-2.3-0.4-4.2-1.4-5.5
		c-1-1.3-2.3-1.9-3.9-1.9c-1.3,0-2.3,0.3-3.2,1c-0.9,0.6-1.6,1.6-2,2.8v8.1c1,2.3,2.8,3.4,5.3,3.4c1.6,0,2.9-0.6,3.8-1.9
		C354.4,154.6,354.9,152.7,354.9,150.1z"/>
	<path class="st0" d="M360.2,150c0-1.7,0.3-3.3,1-4.7c0.7-1.4,1.6-2.4,2.9-3.2s2.6-1.1,4.2-1.1c2.4,0,4.3,0.9,5.8,2.5
		c1.5,1.6,2.3,3.9,2.3,6.7v0.4c0,1.7-0.3,3.3-1,4.7c-0.7,1.4-1.6,2.4-2.9,3.2s-2.6,1.1-4.2,1.1c-2.3,0-4.3-0.9-5.8-2.5
		s-2.3-3.9-2.3-6.7V150z M362.2,150.5c0,2.2,0.5,3.9,1.6,5.3c1.1,1.4,2.6,2.1,4.3,2.1c1.8,0,3.2-0.7,4.3-2.1
		c1.1-1.4,1.6-3.2,1.6-5.5V150c0-1.4-0.3-2.6-0.8-3.7c-0.5-1.1-1.2-2-2.2-2.7c-1-0.6-2-1-3.1-1c-1.7,0-3.2,0.7-4.3,2.1
		c-1.1,1.4-1.6,3.2-1.6,5.5L362.2,150.5L362.2,150.5z"/>
	<path class="st0" d="M388.6,143c-0.4-0.1-0.9-0.1-1.3-0.1c-1.2,0-2.3,0.3-3.1,1c-0.9,0.7-1.5,1.6-1.8,3v12.3h-2v-17.9h1.9v2.9
		c1-2.2,2.8-3.2,5-3.2c0.5,0,1,0.1,1.3,0.2V143z"/>
	<path class="st0" d="M402.3,159.2c-0.2-0.5-0.3-1.4-0.3-2.5c-0.7,0.9-1.6,1.6-2.7,2.1c-1,0.5-2.3,0.7-3.4,0.7
		c-1.7,0-3.1-0.5-4.2-1.5c-1-1-1.6-2.2-1.6-3.6c0-1.7,0.7-3.1,2.2-4.2c1.5-1,3.5-1.6,6.1-1.6h3.6v-2.1c0-1.3-0.4-2.3-1.2-3
		c-0.8-0.7-1.9-1.1-3.5-1.1c-1.4,0-2.5,0.3-3.5,1c-0.9,0.7-1.4,1.6-1.4,2.6h-2c0-1.4,0.7-2.7,2-3.7s2.9-1.6,4.9-1.6
		c2,0,3.6,0.5,4.8,1.5c1.1,1,1.7,2.4,1.7,4.2v8.5c0,1.7,0.2,3,0.5,3.9v0.2L402.3,159.2L402.3,159.2z M396.1,157.8
		c1.3,0,2.5-0.3,3.6-1c1-0.6,1.8-1.5,2.3-2.6v-4h-3.6c-2,0-3.6,0.3-4.7,1.1c-1.1,0.7-1.6,1.6-1.6,2.9c0,1,0.3,1.8,1.1,2.5
		C394,157.4,395,157.8,396.1,157.8z"/>
	<path class="st0" d="M412.3,136.7v4.6h3.7v1.6h-3.7v12c0,1,0.2,1.7,0.5,2.3c0.3,0.5,1,0.7,1.8,0.7c0.3,0,0.9-0.1,1.6-0.2l0.1,1.6
		c-0.5,0.2-1.2,0.3-2.2,0.3c-1.4,0-2.3-0.4-2.9-1.2c-0.6-0.8-1-2-1-3.5v-12h-3.3v-1.6h3.3v-4.6H412.3z"/>
	<path class="st0" d="M418.7,150c0-1.7,0.3-3.3,1-4.7c0.7-1.4,1.6-2.4,2.9-3.2s2.6-1.1,4.2-1.1c2.4,0,4.3,0.9,5.8,2.5
		c1.5,1.6,2.3,3.9,2.3,6.7v0.4c0,1.7-0.3,3.3-1,4.7c-0.7,1.4-1.6,2.4-2.9,3.2s-2.6,1.1-4.2,1.1c-2.3,0-4.3-0.9-5.8-2.5
		s-2.3-3.9-2.3-6.7V150z M420.7,150.5c0,2.2,0.5,3.9,1.6,5.3c1.1,1.4,2.6,2.1,4.3,2.1c1.8,0,3.2-0.7,4.3-2.1
		c1.1-1.4,1.6-3.2,1.6-5.5V150c0-1.4-0.3-2.6-0.8-3.7c-0.5-1.1-1.2-2-2.2-2.7c-1-0.6-2-1-3.1-1c-1.7,0-3.2,0.7-4.3,2.1
		c-1.1,1.4-1.6,3.2-1.6,5.5L420.7,150.5L420.7,150.5z"/>
	<path class="st0" d="M447.1,143c-0.4-0.1-0.9-0.1-1.3-0.1c-1.2,0-2.3,0.3-3.1,1c-0.9,0.7-1.5,1.6-1.8,3v12.3h-2.1v-17.9h1.9v2.9
		c1-2.2,2.8-3.2,5-3.2c0.5,0,1,0.1,1.3,0.2L447.1,143z"/>
	<path class="st0" d="M456.2,156.4l5.2-15.1h2.2l-7.6,21l-0.4,1c-1,2.2-2.5,3.3-4.6,3.3c-0.4,0-1-0.1-1.6-0.3v-1.6l1,0.1
		c1,0,1.7-0.3,2.3-0.7c0.6-0.5,1.1-1.3,1.6-2.5l0.9-2.4l-6.8-17.8h2.2L456.2,156.4z"/>
</g>
</svg>
