<?xml version="1.0" encoding="utf-8"?>
<!-- Generator: Adobe Illustrator 23.0.4, SVG Export Plug-In . SVG Version: 6.00 Build 0)  -->
<svg version="1.1" id="Layer_1" xmlns="http://www.w3.org/2000/svg" xmlns:xlink="http://www.w3.org/1999/xlink" x="0px" y="0px"
	 viewBox="0 0 79.3 79.3" style="enable-background:new 0 0 79.3 79.3;" xml:space="preserve">
<style type="text/css">
	.st0{fill:#FFFFFF;}
	.st1{fill:#295F99;}
</style>
<rect x="-2.5" y="-1.5" class="st0" width="83" height="83"/>
<g>
	<path class="st1" d="M31.1,32.7c0,4.2,0.8,7.3,2.5,9.3c1.7,1.9,3.8,2.9,6.3,2.9c2.5,0,4.6-1,6.3-2.9c1.7-1.9,2.6-5,2.6-9.1
		c0-4-0.9-6.9-2.6-9c-1.8-2-3.9-3-6.4-3c-2.4,0-4.5,1-6.2,3C31.9,25.9,31.1,28.8,31.1,32.7 M26.5,52.1l5.3,0.8
		c0.2,1.6,0.8,2.8,1.9,3.6c1.4,1,3.2,1.5,5.6,1.5c2.5,0,4.5-0.5,5.9-1.5c1.4-1,2.3-2.4,2.8-4.3c0.3-1.1,0.4-3.5,0.4-7
		c-2.4,2.8-5.4,4.2-9,4.2c-4.4,0-7.9-1.6-10.3-4.8c-2.4-3.2-3.7-7.1-3.7-11.5c0-3.1,0.6-5.9,1.7-8.5c1.1-2.6,2.7-4.6,4.9-6
		c2.1-1.4,4.6-2.1,7.5-2.1c3.8,0,7,1.5,9.4,4.6v-3.9H54v28c0,5-0.5,8.6-1.5,10.7c-1,2.1-2.7,3.8-4.9,5c-2.2,1.2-5,1.8-8.2,1.8
		c-3.9,0-7-0.9-9.4-2.6C27.6,58.2,26.5,55.6,26.5,52.1"/>
	<path class="st1" d="M39.7,71.8c-17.8,0-32.3-14.5-32.3-32.3S21.9,7.2,39.7,7.2S72,21.6,72,39.5S57.5,71.8,39.7,71.8 M39.7,2.1
		C19.1,2.1,2.4,18.8,2.4,39.5c0,20.6,16.7,37.4,37.4,37.4s37.4-16.7,37.4-37.4C77.1,18.8,60.3,2.1,39.7,2.1"/>
</g>
</svg>
