<?xml version="1.0" encoding="utf-8"?>
<!-- Generator: Adobe Illustrator 24.0.1, SVG Export Plug-In . SVG Version: 6.00 Build 0)  -->
<svg version="1.1"
	 id="GUIDE" xmlns:cc="http://creativecommons.org/ns#" xmlns:dc="http://purl.org/dc/elements/1.1/" xmlns:inkscape="http://www.inkscape.org/namespaces/inkscape" xmlns:rdf="http://www.w3.org/1999/02/22-rdf-syntax-ns#" xmlns:sodipodi="http://sodipodi.sourceforge.net/DTD/sodipodi-0.dtd" xmlns:svg="http://www.w3.org/2000/svg"
	 xmlns="http://www.w3.org/2000/svg" xmlns:xlink="http://www.w3.org/1999/xlink" x="0px" y="0px" viewBox="0 0 4913.6 800"
	 style="enable-background:new 0 0 4913.6 800;" xml:space="preserve">
<style type="text/css">
	.st0{fill:#C9B3F4;}
	.st1{fill:#B3E0F2;}
	.st2{fill:#FFFFFF;}
</style>
<g>
	<circle class="st0" cx="613.4" cy="513.2" r="31.6"/>
	<circle class="st0" cx="448.8" cy="475.3" r="21.8"/>
	<circle class="st0" cx="614.9" cy="55.2" r="21.8"/>
	<circle class="st0" cx="541.9" cy="461.3" r="13.9"/>
	<circle class="st0" cx="530" cy="84.9" r="13.9"/>
	<circle class="st1" cx="175.2" cy="436.5" r="31.6"/>
	<circle class="st1" cx="184.9" cy="330.6" r="21.8"/>
	<circle class="st1" cx="163.1" cy="252.1" r="13.9"/>
	<path class="st1" d="M245.1,114H113.7c-29.1,0-52.8,23.7-52.8,52.8c0,22.1,13.6,41,32.8,48.9v294c0,11,9,20,20,20
		c42.8,0,71.2,0,71.2,0c0,0,0,0,0,0c11,0,20-9,20-20c0-11-9-20-20-20c0,0-19.8,0-51.2,0V199.7c0-11-9-20-20-20
		c-7.1,0-12.8-5.8-12.8-12.8s5.8-12.8,12.8-12.8h131.4c7.1,0,12.8,5.8,12.8,12.8s-5.8,12.8-12.8,12.8h-60.1c-11,0-20,9-20,20
		s9,20,20,20h40.1v461.3c0,25.2-20.5,45.7-45.7,45.7s-45.7-20.5-45.7-45.7v-108c0-11-9-20-20-20c-11,0-20,9-20,20v108
		c0,47.2,38.4,85.7,85.7,85.7c47.2,0,85.7-38.4,85.7-85.7V215.7c19.2-7.9,32.8-26.8,32.8-48.9C297.9,137.7,274.2,114,245.1,114z"/>
	<path class="st0" d="M415.7,529.7C415.7,529.7,415.7,529.7,415.7,529.7c-11,0-20,8.9-20,20c0,11,8.9,20,20,20c1.9,0,3.9,0,5.9,0.1
		c0.3,0,0.7,0,1,0c10.6,0,19.4-8.3,20-19c0.5-11-8-20.4-19-20.9C420.9,529.7,418.3,529.7,415.7,529.7z"/>
	<path class="st0" d="M729.3,564.1c-7.8-4.6-17.7-3.4-24.2,2.9c-18.3,17.9-40.6,24.8-70.2,21.7c-29.2-3.1-61-15-94.8-27.6
		c-17-6.4-34.6-13-52-18.4c-10.5-3.3-21.8,2.6-25,13.2c-3.3,10.5,2.6,21.8,13.2,25c16.3,5.1,33.4,11.5,49.8,17.6
		c34.6,12.9,70.4,26.3,104.6,30c20.6,2.2,39.1,0.7,55.9-4.6C660,684.7,599,726.6,529.8,726.6c-86.1,0-159-64.3-169.7-149.6
		c-0.9-7.1-1.3-14.3-1.3-21.5c0-71.4,45-136,112-160.6c7.9-2.9,13.1-10.4,13.1-18.8V202.5c0.1-0.9,0.2-1.9,0.2-2.9c0-11-9-20-20-20
		c-7.1,0-12.8-5.8-12.8-12.8S457,154,464.1,154h131.4c7.1,0,12.8,5.8,12.8,12.8s-5.8,12.8-12.8,12.8h-65.7c-11,0-20,9-20,20
		s9,20,20,20h45.6l0.4,156.6c0,8.4,5.2,15.8,13.1,18.7c54.7,20.1,95,66,107.8,122.7c2.1,9.3,10.3,15.6,19.5,15.6
		c1.5,0,2.9-0.2,4.4-0.5c10.8-2.4,17.5-13.1,15.1-23.9c-7.8-34.3-24.2-66.4-47.6-92.9c-20.1-22.7-44.9-40.9-72.4-53.2l-0.3-147
		c19.3-7.9,33-26.8,33-49c0-29.1-23.7-52.8-52.8-52.8H464.1c-29.1,0-52.8,23.7-52.8,52.8c0,22,13.5,40.9,32.6,48.8v147.1
		c-34.5,15.4-64.2,39.6-86.3,70.8c-25.4,35.8-38.9,78-38.9,122.1c0,8.8,0.6,17.7,1.6,26.5c13.2,105.2,103.2,184.6,209.4,184.6
		c51.4,0,100.9-18.7,139.5-52.6c38.1-33.6,62.8-79.6,69.6-129.7C740.1,576.3,736.4,568.3,729.3,564.1z"/>
</g>
<g>
	<g>
		<path class="st2" d="M974.5,312.3v-51.8h133.7v122.4c-13,12.6-31.8,23.7-56.5,33.2c-24.7,9.6-49.7,14.4-74.9,14.4
			c-32.1,0-60.2-6.7-84.1-20.2c-23.9-13.5-41.9-32.8-53.9-57.9c-12-25.1-18-52.4-18-81.9c0-32,6.7-60.4,20.1-85.3
			c13.4-24.9,33-43.9,58.9-57.2c19.7-10.2,44.2-15.3,73.6-15.3c38.2,0,68,8,89.4,24c21.5,16,35.3,38.1,41.4,66.3l-61.6,11.5
			c-4.3-15.1-12.5-27-24.4-35.7c-12-8.7-26.9-13.1-44.8-13.1c-27.1,0-48.7,8.6-64.7,25.8c-16,17.2-24,42.7-24,76.5
			c0,36.5,8.1,63.8,24.3,82.1c16.2,18.2,37.5,27.4,63.7,27.4c13,0,26-2.5,39.1-7.7c13.1-5.1,24.3-11.3,33.6-18.6v-39H974.5z"/>
		<path class="st2" d="M1293.9,354.4l58.7,9.9c-7.5,21.5-19.5,37.9-35.7,49.2c-16.3,11.3-36.7,16.9-61.1,16.9
			c-38.7,0-67.4-12.6-85.9-37.9c-14.7-20.3-22-45.8-22-76.7c0-36.9,9.6-65.8,28.9-86.7c19.3-20.9,43.7-31.3,73.2-31.3
			c33.1,0,59.3,10.9,78.4,32.8c19.1,21.9,28.3,55.4,27.5,100.5h-147.6c0.4,17.5,5.2,31.1,14.3,40.8c9.1,9.7,20.4,14.6,34,14.6
			c9.2,0,17-2.5,23.3-7.5C1286,373.7,1290.7,365.6,1293.9,354.4z M1297.3,294.9c-0.4-17-4.8-30-13.2-38.9
			c-8.4-8.9-18.6-13.3-30.6-13.3c-12.9,0-23.5,4.7-31.9,14c-8.4,9.4-12.5,22.1-12.4,38.2H1297.3z"/>
		<path class="st2" d="M1606.3,425.3h-58.9V311.7c0-24-1.3-39.6-3.8-46.6c-2.5-7.1-6.6-12.5-12.3-16.5c-5.7-3.9-12.5-5.9-20.4-5.9
			c-10.2,0-19.4,2.8-27.5,8.4c-8.1,5.6-13.7,13-16.7,22.2c-3,9.2-4.5,26.3-4.5,51.1v100.8h-58.9V202.7h54.7v32.7
			c19.4-25.2,43.9-37.7,73.4-37.7c13,0,24.9,2.3,35.6,7c10.8,4.7,18.9,10.7,24.4,17.9c5.5,7.3,9.4,15.5,11.5,24.7
			c2.2,9.2,3.2,22.4,3.2,39.6V425.3z"/>
		<path class="st2" d="M1652.4,310.8c0-19.6,4.8-38.5,14.5-56.8c9.6-18.3,23.3-32.3,41-41.9c17.7-9.6,37.4-14.5,59.2-14.5
			c33.7,0,61.3,10.9,82.8,32.8c21.5,21.9,32.3,49.5,32.3,82.9c0,33.7-10.9,61.6-32.6,83.7c-21.7,22.2-49.1,33.2-82.1,33.2
			c-20.4,0-39.9-4.6-58.4-13.8c-18.5-9.2-32.6-22.7-42.2-40.6C1657.2,358.1,1652.4,336.4,1652.4,310.8z M1712.8,314
			c0,22.1,5.2,39,15.7,50.7c10.5,11.7,23.4,17.6,38.8,17.6c15.4,0,28.3-5.9,38.7-17.6c10.4-11.7,15.6-28.8,15.6-51.1
			c0-21.8-5.2-38.6-15.6-50.3c-10.4-11.7-23.3-17.6-38.7-17.6c-15.4,0-28.3,5.9-38.8,17.6C1718,275,1712.8,291.9,1712.8,314z"/>
		<path class="st2" d="M1923.9,202.7h54.3v30.4c19.4-23.6,42.6-35.4,69.4-35.4c14.3,0,26.6,2.9,37.1,8.8
			c10.5,5.9,19.1,14.7,25.8,26.6c9.8-11.9,20.3-20.8,31.7-26.6c11.3-5.9,23.4-8.8,36.3-8.8c16.4,0,30.2,3.3,41.5,10
			c11.3,6.6,19.8,16.4,25.4,29.2c4.1,9.5,6.1,24.9,6.1,46.1v142.3h-58.9V298c0-22.1-2-36.3-6.1-42.8c-5.5-8.4-13.8-12.6-25.2-12.6
			c-8.2,0-16,2.5-23.3,7.5c-7.3,5-12.5,12.4-15.7,22.1c-3.2,9.7-4.8,25-4.8,46v106.9h-58.9v-122c0-21.7-1-35.6-3.1-41.9
			c-2.1-6.3-5.3-11-9.7-14c-4.4-3.1-10.4-4.6-17.9-4.6c-9.1,0-17.3,2.4-24.5,7.3c-7.3,4.9-12.5,11.9-15.6,21.2
			c-3.1,9.2-4.7,24.5-4.7,45.9v108.2h-58.9V202.7z"/>
		<path class="st2" d="M2310,172.5V118h58.9v54.5H2310z M2310,425.3V202.7h58.9v222.6H2310z"/>
		<path class="st2" d="M2623.4,268.5l-58.1,10.5c-2-11.6-6.4-20.3-13.3-26.2c-6.9-5.9-15.9-8.8-26.9-8.8c-14.7,0-26.4,5.1-35.1,15.2
			c-8.7,10.1-13.1,27.1-13.1,50.8c0,26.4,4.4,45.1,13.3,56c8.9,10.9,20.8,16.4,35.7,16.4c11.2,0,20.3-3.2,27.5-9.5
			c7.1-6.4,12.2-17.3,15.1-32.8l57.9,9.9c-6,26.6-17.5,46.6-34.6,60.2c-17.1,13.6-39.9,20.3-68.5,20.3c-32.6,0-58.5-10.3-77.9-30.8
			c-19.4-20.5-29-49-29-85.3c0-36.8,9.7-65.4,29.1-85.8c19.4-20.5,45.7-30.7,78.8-30.7c27.1,0,48.7,5.8,64.7,17.5
			C2604.9,226.8,2616.4,244.6,2623.4,268.5z"/>
	</g>
	<g>
		<path class="st2" d="M2769.1,422.8V115.5h99.6c37.7,0,62.3,1.5,73.8,4.6c17.6,4.6,32.4,14.6,44.2,30.1
			c11.9,15.4,17.8,35.4,17.8,59.8c0,18.9-3.4,34.7-10.3,47.6c-6.8,12.9-15.5,23-26.1,30.3c-10.6,7.3-21.3,12.2-32.2,14.6
			c-14.8,2.9-36.3,4.4-64.4,4.4h-40.5v115.9H2769.1z M2831.1,167.4v87.2h34c24.5,0,40.8-1.6,49.1-4.8c8.2-3.2,14.7-8.2,19.4-15.1
			c4.7-6.8,7-14.8,7-23.9c0-11.2-3.3-20.4-9.9-27.7c-6.6-7.3-14.9-11.8-24.9-13.6c-7.4-1.4-22.3-2.1-44.7-2.1H2831.1z"/>
		<path class="st2" d="M3111.4,422.8h-58.9V200.1h54.7v31.7c9.4-15,17.8-24.8,25.3-29.6c7.5-4.7,16-7.1,25.5-7.1
			c13.4,0,26.3,3.7,38.8,11.1l-18.2,51.4c-9.9-6.4-19.1-9.6-27.7-9.6c-8.2,0-15.2,2.3-21,6.8c-5.7,4.5-10.2,12.8-13.5,24.6
			c-3.3,11.9-4.9,36.8-4.9,74.6V422.8z"/>
		<path class="st2" d="M3351,351.9l58.7,9.9c-7.5,21.5-19.5,37.9-35.7,49.2c-16.3,11.3-36.7,16.9-61.1,16.9
			c-38.7,0-67.4-12.6-85.9-37.9c-14.7-20.3-22-45.8-22-76.7c0-36.9,9.6-65.8,28.9-86.7c19.3-20.9,43.7-31.3,73.2-31.3
			c33.1,0,59.3,10.9,78.4,32.8c19.1,21.9,28.3,55.4,27.5,100.5h-147.6c0.4,17.5,5.2,31.1,14.3,40.8c9.1,9.7,20.4,14.6,34,14.6
			c9.2,0,17-2.5,23.3-7.5C3343,371.2,3347.8,363.1,3351,351.9z M3354.3,292.4c-0.4-17-4.8-30-13.2-38.9
			c-8.4-8.9-18.6-13.3-30.6-13.3c-12.9,0-23.5,4.7-31.9,14c-8.4,9.4-12.5,22.1-12.4,38.2H3354.3z"/>
		<path class="st2" d="M3665,422.8h-54.7v-32.7c-9.1,12.7-19.8,22.2-32.2,28.4c-12.4,6.2-24.8,9.3-37.4,9.3
			c-25.6,0-47.5-10.3-65.7-30.9c-18.2-20.6-27.4-49.4-27.4-86.3c0-37.7,8.9-66.4,26.6-86.1c17.7-19.6,40.2-29.5,67.3-29.5
			c24.9,0,46.4,10.3,64.6,31V115.5h58.9V422.8z M3507.8,306.6c0,23.8,3.3,40.9,9.9,51.6c9.5,15.4,22.8,23.1,39.8,23.1
			c13.6,0,25.1-5.8,34.6-17.3c9.5-11.5,14.3-28.8,14.3-51.7c0-25.6-4.6-44-13.8-55.2c-9.2-11.2-21-16.9-35.4-16.9
			c-14,0-25.7,5.6-35.1,16.7C3512.5,268,3507.8,284.6,3507.8,306.6z"/>
		<path class="st2" d="M3723.1,170v-54.5h58.9V170H3723.1z M3723.1,422.8V200.1h58.9v222.6H3723.1z"/>
		<path class="st2" d="M4036.5,266l-58.1,10.5c-2-11.6-6.4-20.3-13.3-26.2c-6.9-5.9-15.9-8.8-26.9-8.8c-14.7,0-26.4,5.1-35.1,15.2
			c-8.7,10.1-13.1,27.1-13.1,50.8c0,26.4,4.4,45.1,13.3,56c8.9,10.9,20.8,16.4,35.7,16.4c11.2,0,20.3-3.2,27.5-9.5
			c7.1-6.4,12.2-17.3,15.1-32.8l57.9,9.9c-6,26.6-17.5,46.6-34.6,60.2c-17.1,13.6-39.9,20.3-68.5,20.3c-32.6,0-58.5-10.3-77.9-30.8
			c-19.4-20.5-29-49-29-85.3c0-36.8,9.7-65.4,29.1-85.8c19.4-20.5,45.7-30.7,78.8-30.7c27.1,0,48.7,5.8,64.7,17.5
			C4018,224.3,4029.5,242.1,4036.5,266z"/>
		<path class="st2" d="M4183.2,200.1v47h-40.2v89.7c0,18.2,0.4,28.8,1.2,31.8c0.8,3,2.5,5.5,5.2,7.4c2.7,2,6,2.9,10,2.9
			c5.5,0,13.3-1.9,23.7-5.7l5,45.7c-13.7,5.9-29.2,8.8-46.5,8.8c-10.6,0-20.2-1.8-28.7-5.3c-8.5-3.6-14.8-8.2-18.8-13.8
			c-4-5.7-6.7-13.3-8.3-23c-1.3-6.8-1.9-20.7-1.9-41.5v-97.1h-27v-47h27v-44.2l59.1-34.4v78.6H4183.2z"/>
		<path class="st2" d="M4224.1,170v-54.5h58.9V170H4224.1z M4224.1,422.8V200.1h58.9v222.6H4224.1z"/>
		<path class="st2" d="M4329.7,308.3c0-19.6,4.8-38.5,14.5-56.8c9.6-18.3,23.3-32.3,41-41.9c17.7-9.6,37.4-14.5,59.2-14.5
			c33.7,0,61.3,10.9,82.8,32.8c21.5,21.9,32.3,49.5,32.3,82.9c0,33.7-10.9,61.6-32.6,83.7c-21.7,22.2-49.1,33.2-82.1,33.2
			c-20.4,0-39.9-4.6-58.4-13.8c-18.5-9.2-32.6-22.7-42.2-40.6C4334.5,355.6,4329.7,333.9,4329.7,308.3z M4390.1,311.5
			c0,22.1,5.2,39,15.7,50.7c10.5,11.7,23.4,17.6,38.8,17.6c15.4,0,28.3-5.9,38.7-17.6c10.4-11.7,15.6-28.8,15.6-51.1
			c0-21.8-5.2-38.6-15.6-50.3c-10.4-11.7-23.3-17.6-38.7-17.6c-15.4,0-28.3,5.9-38.8,17.6C4395.3,272.5,4390.1,289.4,4390.1,311.5z"
			/>
		<path class="st2" d="M4808.1,422.8h-58.9V309.1c0-24-1.3-39.6-3.8-46.6c-2.5-7.1-6.6-12.5-12.3-16.5c-5.7-3.9-12.5-5.9-20.4-5.9
			c-10.2,0-19.4,2.8-27.5,8.4c-8.1,5.6-13.7,13-16.7,22.2c-3,9.2-4.5,26.3-4.5,51.1v100.8h-58.9V200.1h54.7v32.7
			c19.4-25.2,43.9-37.7,73.4-37.7c13,0,24.9,2.3,35.6,7c10.8,4.7,18.9,10.7,24.4,17.9c5.5,7.3,9.4,15.5,11.5,24.7
			c2.2,9.2,3.2,22.4,3.2,39.6V422.8z"/>
	</g>
	<path class="st2" d="M850.2,739.2V518.8h44.8v182.9h111.5v37.4H850.2z"/>
	<path class="st2" d="M1070.1,627.3l-38.6-7c4.3-15.6,11.8-27.1,22.4-34.5c10.6-7.5,26.4-11.2,47.3-11.2c19,0,33.1,2.2,42.4,6.7
		c9.3,4.5,15.8,10.2,19.6,17.1c3.8,6.9,5.7,19.6,5.7,38.1l-0.5,49.7c0,14.1,0.7,24.6,2,31.3c1.4,6.7,3.9,13.9,7.7,21.6H1136
		c-1.1-2.8-2.5-7-4.1-12.6c-0.7-2.5-1.2-4.2-1.5-5c-7.3,7.1-15.1,12.4-23.3,15.9c-8.3,3.5-17.1,5.3-26.5,5.3
		c-16.6,0-29.6-4.5-39.2-13.5c-9.5-9-14.3-20.4-14.3-34.1c0-9.1,2.2-17.2,6.5-24.3c4.3-7.1,10.4-12.6,18.3-16.4
		c7.8-3.8,19.1-7.1,33.9-9.9c19.9-3.7,33.7-7.2,41.4-10.5v-4.2c0-8.2-2-14-6.1-17.5c-4-3.5-11.7-5.2-22.9-5.2
		c-7.6,0-13.5,1.5-17.7,4.5C1076.2,614.6,1072.7,619.9,1070.1,627.3z M1127.1,661.9c-5.5,1.8-14.1,4-25.9,6.5
		c-11.8,2.5-19.5,5-23.2,7.4c-5.6,3.9-8.3,8.9-8.3,15c0,6,2.2,11.1,6.7,15.5c4.4,4.3,10.1,6.5,17,6.5c7.7,0,15-2.5,22-7.6
		c5.2-3.8,8.5-8.5,10.2-14.1c1.1-3.6,1.7-10.6,1.7-20.8V661.9z"/>
	<path class="st2" d="M1209,739.2V517h42.6v80c13.1-14.9,28.7-22.4,46.7-22.4c19.6,0,35.8,7.1,48.6,21.3
		c12.8,14.2,19.2,34.6,19.2,61.1c0,27.5-6.5,48.6-19.6,63.5c-13.1,14.8-29,22.3-47.7,22.3c-9.2,0-18.3-2.3-27.2-6.9
		c-8.9-4.6-16.6-11.4-23.1-20.4v23.6H1209z M1251.3,655.2c0,16.7,2.6,29,7.9,37c7.4,11.3,17.2,17,29.4,17c9.4,0,17.4-4,24-12
		c6.6-8,9.9-20.7,9.9-38c0-18.4-3.3-31.6-10-39.8c-6.7-8.1-15.2-12.2-25.6-12.2c-10.2,0-18.7,4-25.5,11.9
		C1254.7,627,1251.3,639,1251.3,655.2z"/>
</g>
</svg>
