<svg width="174" height="40" viewBox="0 0 174 40" fill="none" xmlns="http://www.w3.org/2000/svg">
<g clip-path="url(#clip0)">
<path fill-rule="evenodd" clip-rule="evenodd" d="M25.8453 10.1621H19.0561C15.4265 10.1621 12.4727 13.2518 12.4727 16.8348C12.4727 20.4189 15.5007 23.4209 19.1317 23.4209C19.1499 23.4209 23.1016 23.3171 23.0637 25.4945C23.0411 26.8465 18.6723 29.6698 18.6723 29.6698V32.1948C18.6723 32.1948 25.0382 28.5542 25.6487 25.6936C26.199 23.1109 23.6277 22.2751 23.2014 22.0677C24.6979 20.8745 25.6487 18.8409 25.6487 16.8001C25.6487 15.1315 24.9974 13.9106 23.9465 12.2448H25.8453V10.1621ZM19.0561 21.0456C16.6859 21.0456 14.7567 19.1421 14.7567 16.8015C14.7567 14.4612 16.6859 12.5574 19.0561 12.5574C21.4265 12.5574 23.3557 14.4612 23.3557 16.8015C23.3557 19.1421 21.4265 21.0456 19.0561 21.0456Z" fill="white"/>
<path fill-rule="evenodd" clip-rule="evenodd" d="M8.02323 7.21561C8.41622 6.85679 8.82739 6.51826 9.25226 6.19532L7.88409 4.34473C7.37312 4.72943 6.8818 5.13884 6.41016 5.56973L8.02323 7.21561Z" fill="white"/>
<path fill-rule="evenodd" clip-rule="evenodd" d="M9.93308 5.70366C10.3699 5.40395 10.8219 5.12277 11.2875 4.86219L10.1917 2.84277C9.63216 3.15454 9.0896 3.4916 8.56641 3.85307L9.93308 5.70366Z" fill="white"/>
<path fill-rule="evenodd" clip-rule="evenodd" d="M5.96359 9.44481C6.41408 8.8657 6.89794 8.31364 7.41637 7.79481L5.80329 6.14746C5.18804 6.76011 4.61658 7.41158 4.08594 8.09746L5.96359 9.44481Z" fill="white"/>
<path fill-rule="evenodd" clip-rule="evenodd" d="M2.44037 18.0332C2.54465 17.137 2.71865 16.2605 2.95581 15.4105L0.733437 14.7502C0.452475 15.7461 0.248382 16.772 0.128906 17.8244L2.44037 18.0332Z" fill="white"/>
<path fill-rule="evenodd" clip-rule="evenodd" d="M4.4913 11.6707C4.78925 11.1345 5.11729 10.6171 5.46797 10.1186L3.59181 8.77124C3.17141 9.36477 2.77991 9.98006 2.42773 10.6204L4.4913 11.6707Z" fill="white"/>
<path fill-rule="evenodd" clip-rule="evenodd" d="M3.20043 14.6132C3.45279 13.8553 3.75222 13.1188 4.1029 12.4112L2.04082 11.3606C1.62668 12.1935 1.27153 13.06 0.976562 13.9532L3.20043 14.6132Z" fill="white"/>
<path fill-rule="evenodd" clip-rule="evenodd" d="M12.0317 4.46749C13.3605 3.80191 14.7844 3.29602 16.278 2.97867L15.8427 0.726318C14.1149 1.08955 12.4685 1.67602 10.9355 2.44867L12.0317 4.46749Z" fill="white"/>
<path fill-rule="evenodd" clip-rule="evenodd" d="M33.8415 30.885C32.8875 32.0682 31.7857 33.1306 30.5566 34.0353L31.8959 35.9047C33.3186 34.8627 34.5944 33.6362 35.6917 32.2656L33.8415 30.885Z" fill="white"/>
<path fill-rule="evenodd" clip-rule="evenodd" d="M16.6719 0.573386L17.1072 2.82309C17.7284 2.72221 18.3591 2.65162 19.0015 2.61574L18.9243 0.323975C18.161 0.364563 17.4111 0.450739 16.6719 0.573386Z" fill="white"/>
<path fill-rule="evenodd" clip-rule="evenodd" d="M37.6837 20.0396C37.6837 21.8093 37.4131 23.5173 36.9141 25.1284L39.1197 25.8487C39.6942 24.0117 40.0041 22.0602 40.0041 20.0396C40.0041 20.0137 40.0026 19.9893 40.0026 19.9631L37.6837 20.0211V20.0396Z" fill="white"/>
<path fill-rule="evenodd" clip-rule="evenodd" d="M38.8067 13.3066L36.6406 14.134C37.2225 15.7252 37.5762 17.4228 37.6623 19.1881L39.983 19.1305C39.8876 17.094 39.4809 15.1387 38.8067 13.3066Z" fill="white"/>
<path fill-rule="evenodd" clip-rule="evenodd" d="M33.3281 8.58597C34.5738 9.99685 35.5958 11.6039 36.335 13.3577L38.4996 12.5321C37.6546 10.5116 36.4786 8.66097 35.041 7.04126L33.3281 8.58597Z" fill="white"/>
<path fill-rule="evenodd" clip-rule="evenodd" d="M27.3027 4.14852C29.3633 5.07381 31.2106 6.37822 32.7587 7.97058L34.4713 6.42705C32.6997 4.59411 30.5786 3.09646 28.2097 2.04028L27.3027 4.14852Z" fill="white"/>
<path fill-rule="evenodd" clip-rule="evenodd" d="M26.0287 38.8673L25.2835 36.6985C23.9833 37.1005 22.6196 37.3541 21.2109 37.4479L21.3134 39.7379C22.9462 39.6326 24.5262 39.3373 26.0287 38.8673Z" fill="white"/>
<path fill-rule="evenodd" clip-rule="evenodd" d="M36.6488 25.9187C36.0863 27.4652 35.3081 28.9105 34.3496 30.2205L36.2013 31.6028C37.3094 30.0937 38.2074 28.4263 38.8516 26.6393L36.6488 25.9187Z" fill="white"/>
<path fill-rule="evenodd" clip-rule="evenodd" d="M29.8674 34.5176C28.6974 35.2973 27.4276 35.9429 26.082 36.4299L26.8272 38.6002C28.3875 38.0399 29.8567 37.2932 31.2082 36.3867L29.8674 34.5176Z" fill="white"/>
<path fill-rule="evenodd" clip-rule="evenodd" d="M19.8449 2.58953C19.8979 2.58953 19.9492 2.58542 20.0022 2.58542C22.3059 2.58542 24.5057 3.02777 26.5251 3.82189L27.4339 1.71336C25.1343 0.801004 22.628 0.293945 20.0022 0.293945C19.9236 0.293945 19.8464 0.299534 19.7695 0.301298L19.8449 2.58953Z" fill="white"/>
<path fill-rule="evenodd" clip-rule="evenodd" d="M2.3207 20.0395C2.3207 19.6433 2.33887 19.2527 2.36598 18.8621L0.054524 18.6533C0.0214521 19.113 0 19.5727 0 20.0395C0 20.596 0.0289007 21.1463 0.0756781 21.6913L2.38416 21.4504C2.34483 20.9848 2.3207 20.5151 2.3207 20.0395Z" fill="white"/>
<path fill-rule="evenodd" clip-rule="evenodd" d="M20.3659 37.4843C20.2449 37.4872 20.124 37.4931 20.0015 37.4931C18.8225 37.4931 17.6689 37.376 16.5534 37.1572L16.0469 39.3955C17.3257 39.649 18.6485 39.7843 20.0015 39.7843C20.1588 39.7843 20.3132 39.7758 20.4687 39.7728L20.3659 37.4843Z" fill="white"/>
<path fill-rule="evenodd" clip-rule="evenodd" d="M3.12862 25.2567C2.82322 24.2969 2.60572 23.3025 2.47105 22.2793L0.164062 22.5199C0.315419 23.7131 0.572247 24.8749 0.932165 25.9931L3.12862 25.2567Z" fill="white"/>
<path fill-rule="evenodd" clip-rule="evenodd" d="M4.81882 28.9715C4.25958 28.0477 3.78019 27.0691 3.39911 26.0459L1.20117 26.7824C1.64273 27.9771 2.1975 29.1171 2.85358 30.1909L4.81882 28.9715Z" fill="white"/>
<path fill-rule="evenodd" clip-rule="evenodd" d="M11.1399 35.1322C10.0197 34.4881 8.97507 33.7287 8.02879 32.8669L6.41602 34.5125C7.51186 35.5158 8.72271 36.3975 10.0244 37.1414L11.1399 35.1322Z" fill="white"/>
<path fill-rule="evenodd" clip-rule="evenodd" d="M7.42156 32.2877C6.62337 31.488 5.90234 30.6147 5.2704 29.6765L3.30664 30.8942C4.03839 31.988 4.87592 33.0083 5.80849 33.935L7.42156 32.2877Z" fill="white"/>
<path fill-rule="evenodd" clip-rule="evenodd" d="M15.7313 36.9754C14.378 36.6424 13.0885 36.1554 11.8795 35.5342L10.7637 37.5433C12.1622 38.2651 13.6573 38.8304 15.2248 39.2107L15.7313 36.9754Z" fill="white"/>
<path fill-rule="evenodd" clip-rule="evenodd" d="M54.4142 15.049C54.0305 15.5028 53.4873 15.8552 52.7848 16.1057C52.0828 16.3563 51.3052 16.4816 50.4513 16.4816C49.5545 16.4816 48.7682 16.2887 48.0921 15.9016C47.4167 15.5154 46.8941 14.9549 46.5267 14.2199C46.1594 13.4846 45.9705 12.6204 45.9609 11.6278V10.9322C45.9609 9.91162 46.1355 9.02751 46.4838 8.28104C46.833 7.53398 47.336 6.96309 47.9926 6.56692C48.6496 6.17104 49.4192 5.97339 50.302 5.97339C51.5301 5.97339 52.491 6.26251 53.1837 6.84104C53.8761 7.41956 54.2861 8.26133 54.4142 9.36604H52.3367C52.2416 8.78074 52.0316 8.35251 51.7071 8.08104C51.382 7.80898 50.9351 7.67339 50.3658 7.67339C49.6397 7.67339 49.087 7.9428 48.7077 8.48074C48.3284 9.01956 48.1362 9.82074 48.1318 10.8831V11.5369C48.1318 12.6087 48.3376 13.419 48.7506 13.9672C49.1633 14.5146 49.7684 14.789 50.5648 14.789C51.3669 14.789 51.9383 14.6202 52.2798 14.2831V12.5196H50.3372V10.9678H54.4142V15.049Z" fill="white"/>
<path fill-rule="evenodd" clip-rule="evenodd" d="M59.3165 10.2368C58.9087 10.2368 58.5779 10.3736 58.3241 10.6462C58.0699 10.9192 57.9076 11.3098 57.8363 11.8174H60.6972V11.655C60.6877 11.2036 60.564 10.8545 60.3272 10.6077C60.0897 10.3606 59.753 10.2368 59.3165 10.2368ZM59.5516 16.4815C58.4224 16.4815 57.5035 16.14 56.7941 15.4556C56.085 14.7721 55.7305 13.8615 55.7305 12.7239V12.5271C55.7305 11.7639 55.8797 11.0809 56.1786 10.4795C56.4777 9.87799 56.9014 9.41446 57.4487 9.08858C57.9969 8.76328 58.6214 8.60034 59.3234 8.60034C60.3769 8.60034 61.2055 8.92799 61.8106 9.58358C62.4155 10.2392 62.7179 11.1692 62.7179 12.3724V13.2015H57.8155C57.8816 13.698 58.0822 14.0959 58.4167 14.395C58.7507 14.695 59.1741 14.8448 59.6863 14.8448C60.4791 14.8448 61.098 14.5618 61.544 13.995L62.554 15.1118C62.2459 15.543 61.8282 15.8789 61.302 16.12C60.7753 16.3606 60.1919 16.4815 59.5516 16.4815Z" fill="white"/>
<path fill-rule="evenodd" clip-rule="evenodd" d="M65.7789 8.74093L65.843 9.61916C66.3933 8.94005 67.1313 8.60034 68.0561 8.60034C68.8716 8.60034 69.4788 8.8374 69.8771 9.31005C70.2761 9.78269 70.4796 10.49 70.4891 11.4312V16.3409H68.433V11.4803C68.433 11.05 68.3377 10.7371 68.1482 10.543C67.9584 10.3483 67.6434 10.2512 67.2016 10.2512C66.6233 10.2512 66.1889 10.495 65.8999 10.9815V16.3409H63.8438V8.74093H65.7789Z" fill="white"/>
<path fill-rule="evenodd" clip-rule="evenodd" d="M73.7833 12.615C73.7833 13.3374 73.9206 13.8895 74.1959 14.2715C74.4709 14.6542 74.8645 14.845 75.377 14.845C75.8751 14.845 76.2643 14.6565 76.544 14.2789C76.8238 13.9015 76.9635 13.2974 76.9635 12.4677C76.9635 11.7592 76.8238 11.2106 76.544 10.8209C76.2643 10.4318 75.8704 10.2371 75.3624 10.2371C74.8594 10.2371 74.4709 10.4309 74.1959 10.8174C73.9206 11.205 73.7833 11.8039 73.7833 12.615ZM71.7266 12.4706C71.7266 11.7168 71.874 11.045 72.1678 10.4553C72.4619 9.86505 72.8853 9.40858 73.438 9.08564C73.9906 8.76211 74.6321 8.60034 75.3624 8.60034C76.4016 8.60034 77.2496 8.91446 77.9062 9.54211C78.5635 10.1692 78.9303 11.0215 79.006 12.0989L79.0203 12.6183C79.0203 13.7845 78.6901 14.72 78.0311 15.4248C77.3717 16.1295 76.4871 16.4815 75.377 16.4815C74.2674 16.4815 73.3813 16.13 72.7196 15.4277C72.0576 14.7256 71.7266 13.77 71.7266 12.5621V12.4706Z" fill="white"/>
<path fill-rule="evenodd" clip-rule="evenodd" d="M82.2141 8.74093L82.2778 9.59122C82.8234 8.93064 83.5608 8.60034 84.4907 8.60034C85.4819 8.60034 86.163 8.98711 86.5331 9.75975C87.0738 8.98711 87.8443 8.60034 88.8454 8.60034C89.6806 8.60034 90.3018 8.84034 90.7094 9.32064C91.1179 9.80093 91.3214 10.5233 91.3214 11.4871V16.3409H89.2584V11.4948C89.2584 11.0636 89.1726 10.7489 89.0018 10.5498C88.8308 10.3509 88.5299 10.2512 88.0985 10.2512C87.4814 10.2512 87.0548 10.5418 86.8173 11.1221L86.8248 16.3409H84.768V11.5015C84.768 11.0618 84.6804 10.7433 84.5053 10.5462C84.3295 10.3495 84.0309 10.2512 83.6087 10.2512C83.0251 10.2512 82.6029 10.49 82.3422 10.9677V16.3409H80.2852V8.74093H82.2141Z" fill="white"/>
<mask id="mask0" mask-type="alpha" maskUnits="userSpaceOnUse" x="0" y="0" width="174" height="40">
<path d="M0 39.7845H173.755V0.294189H0V39.7845Z" fill="white"/>
</mask>
<g mask="url(#mask0)">
<path fill-rule="evenodd" clip-rule="evenodd" d="M93.0077 16.341H95.0707V8.74102H93.0077V16.341ZM92.8867 6.77484C92.8867 6.46984 92.9898 6.21925 93.196 6.02278C93.4028 5.82602 93.6834 5.72778 94.0392 5.72778C94.3899 5.72778 94.6699 5.82602 94.8791 6.02278C95.0876 6.21925 95.1916 6.46984 95.1916 6.77484C95.1916 7.08337 95.0862 7.33661 94.8752 7.53308C94.664 7.72955 94.3857 7.82808 94.0392 7.82808C93.6933 7.82808 93.4138 7.72955 93.2028 7.53308C92.9916 7.33661 92.8867 7.08337 92.8867 6.77484Z" fill="white"/>
<path fill-rule="evenodd" clip-rule="evenodd" d="M99.9676 14.845C100.347 14.845 100.655 14.7424 100.893 14.5359C101.13 14.33 101.253 14.0562 101.263 13.7142H103.191C103.187 14.2292 103.044 14.7012 102.764 15.1292C102.484 15.558 102.101 15.8906 101.615 16.1271C101.128 16.3636 100.592 16.4815 100.003 16.4815C98.9028 16.4815 98.0346 16.1365 97.3987 15.4459C96.7635 14.7548 96.4453 13.8006 96.4453 12.5833V12.4495C96.4453 11.2795 96.7608 10.3453 97.3916 9.6474C98.0226 8.94946 98.8885 8.60034 99.9891 8.60034C100.952 8.60034 101.724 8.87093 102.305 9.41211C102.886 9.95269 103.181 10.673 103.191 11.5718H101.263C101.253 11.1762 101.13 10.8553 100.893 10.6077C100.655 10.3606 100.342 10.2371 99.9533 10.2371C99.4745 10.2371 99.1128 10.4098 98.8682 10.7545C98.6236 11.0992 98.502 11.6583 98.502 12.4321V12.643C98.502 13.4262 98.623 13.9892 98.8649 14.3312C99.1063 14.6739 99.4745 14.845 99.9676 14.845Z" fill="white"/>
<path fill-rule="evenodd" clip-rule="evenodd" d="M110.264 11.0307H112.171C112.735 11.0307 113.166 10.9001 113.462 10.6375C113.759 10.3757 113.907 10.0007 113.907 9.51367C113.907 9.01279 113.757 8.60779 113.459 8.29867C113.159 7.98955 112.746 7.83043 112.22 7.82102H110.264V11.0307ZM110.264 12.7375V16.341H108.129V6.11426H112.171C112.948 6.11426 113.633 6.25485 114.224 6.53573C114.814 6.81632 115.269 7.21573 115.586 7.73337C115.904 8.25073 116.063 8.83926 116.063 9.49985C116.063 10.5019 115.715 11.2919 115.02 11.8704C114.325 12.449 113.364 12.7375 112.135 12.7375H110.264Z" fill="white"/>
<path fill-rule="evenodd" clip-rule="evenodd" d="M121.719 10.6445C121.439 10.6071 121.192 10.5886 120.979 10.5886C120.201 10.5886 119.691 10.8486 119.449 11.3677V16.3412H117.393V8.74093H119.335L119.392 9.6474C119.804 8.94946 120.376 8.60034 121.107 8.60034C121.335 8.60034 121.548 8.63093 121.747 8.69181L121.719 10.6445Z" fill="white"/>
<path fill-rule="evenodd" clip-rule="evenodd" d="M125.881 10.2368C125.473 10.2368 125.142 10.3736 124.889 10.6462C124.634 10.9192 124.472 11.3098 124.401 11.8174H127.262V11.655C127.252 11.2036 127.128 10.8545 126.892 10.6077C126.654 10.3606 126.318 10.2368 125.881 10.2368ZM126.116 16.4815C124.987 16.4815 124.068 16.14 123.359 15.4556C122.65 14.7721 122.295 13.8615 122.295 12.7239V12.5271C122.295 11.7639 122.444 11.0809 122.743 10.4795C123.042 9.87799 123.466 9.41446 124.013 9.08858C124.561 8.76328 125.186 8.60034 125.888 8.60034C126.942 8.60034 127.77 8.92799 128.375 9.58358C128.98 10.2392 129.283 11.1692 129.283 12.3724V13.2015H124.38C124.446 13.698 124.647 14.0959 124.981 14.395C125.315 14.695 125.739 14.8448 126.251 14.8448C127.044 14.8448 127.662 14.5618 128.109 13.995L129.118 15.1118C128.81 15.543 128.393 15.8789 127.866 16.12C127.34 16.3606 126.756 16.4815 126.116 16.4815Z" fill="white"/>
<path fill-rule="evenodd" clip-rule="evenodd" d="M132.186 12.636C132.186 13.349 132.311 13.8951 132.563 14.2751C132.814 14.6551 133.179 14.8448 133.658 14.8448C134.294 14.8448 134.742 14.5798 135.003 14.0498V11.046C134.747 10.516 134.303 10.2513 133.673 10.2513C132.681 10.2513 132.186 11.046 132.186 12.636ZM130.129 12.4848C130.129 11.2998 130.398 10.3563 130.937 9.65396C131.475 8.95161 132.212 8.60014 133.146 8.60014C133.895 8.60014 134.514 8.8772 135.003 9.42955V5.55249H137.067V16.341H135.209L135.11 15.5337C134.598 16.1654 133.938 16.4816 133.132 16.4816C132.226 16.4816 131.499 16.1293 130.951 15.4246C130.403 14.7198 130.129 13.7395 130.129 12.4848Z" fill="white"/>
<path fill-rule="evenodd" clip-rule="evenodd" d="M138.767 16.341H140.83V8.74102H138.767V16.341ZM138.646 6.77484C138.646 6.46984 138.75 6.21925 138.956 6.02278C139.162 5.82602 139.443 5.72778 139.799 5.72778C140.15 5.72778 140.429 5.82602 140.639 6.02278C140.847 6.21925 140.951 6.46984 140.951 6.77484C140.951 7.08337 140.846 7.33661 140.635 7.53308C140.424 7.72955 140.145 7.82808 139.799 7.82808C139.453 7.82808 139.174 7.72955 138.963 7.53308C138.751 7.33661 138.646 7.08337 138.646 6.77484Z" fill="white"/>
<path fill-rule="evenodd" clip-rule="evenodd" d="M145.727 14.845C146.107 14.845 146.415 14.7424 146.652 14.5359C146.889 14.33 147.013 14.0562 147.023 13.7142H148.951C148.946 14.2292 148.804 14.7012 148.524 15.1292C148.244 15.558 147.86 15.8906 147.374 16.1271C146.888 16.3636 146.351 16.4815 145.763 16.4815C144.663 16.4815 143.794 16.1365 143.158 15.4459C142.523 14.7548 142.205 13.8006 142.205 12.5833V12.4495C142.205 11.2795 142.521 10.3453 143.151 9.6474C143.782 8.94946 144.648 8.60034 145.749 8.60034C146.712 8.60034 147.484 8.87093 148.065 9.41211C148.645 9.95269 148.941 10.673 148.951 11.5718H147.023C147.013 11.1762 146.889 10.8553 146.652 10.6077C146.415 10.3606 146.102 10.2371 145.713 10.2371C145.234 10.2371 144.872 10.4098 144.628 10.7545C144.383 11.0992 144.262 11.6583 144.262 12.4321V12.643C144.262 13.4262 144.383 13.9892 144.625 14.3312C144.866 14.6739 145.234 14.845 145.727 14.845Z" fill="white"/>
<path fill-rule="evenodd" clip-rule="evenodd" d="M152.587 6.87305V8.74099H153.903V10.2301H152.587V14.0233C152.587 14.3045 152.642 14.5054 152.751 14.6275C152.859 14.7492 153.068 14.8101 153.377 14.8101C153.604 14.8101 153.806 14.7933 153.982 14.761V16.2986C153.578 16.4207 153.163 16.4816 152.737 16.4816C151.294 16.4816 150.559 15.7633 150.531 14.3251V10.2301H149.406V8.74099H150.531V6.87305H152.587Z" fill="white"/>
<path fill-rule="evenodd" clip-rule="evenodd" d="M155.154 16.341H157.218V8.74102H155.154V16.341ZM155.033 6.77484C155.033 6.46984 155.137 6.21925 155.343 6.02278C155.55 5.82602 155.83 5.72778 156.186 5.72778C156.537 5.72778 156.817 5.82602 157.026 6.02278C157.234 6.21925 157.338 6.46984 157.338 6.77484C157.338 7.08337 157.233 7.33661 157.022 7.53308C156.811 7.72955 156.532 7.82808 156.186 7.82808C155.84 7.82808 155.561 7.72955 155.35 7.53308C155.139 7.33661 155.033 7.08337 155.033 6.77484Z" fill="white"/>
<path fill-rule="evenodd" clip-rule="evenodd" d="M160.649 12.615C160.649 13.3374 160.786 13.8895 161.061 14.2715C161.336 14.6542 161.73 14.845 162.242 14.845C162.74 14.845 163.129 14.6565 163.409 14.2789C163.689 13.9015 163.829 13.2974 163.829 12.4677C163.829 11.7592 163.689 11.2106 163.409 10.8209C163.129 10.4318 162.735 10.2371 162.228 10.2371C161.725 10.2371 161.336 10.4309 161.061 10.8174C160.786 11.205 160.649 11.8039 160.649 12.615ZM158.592 12.4706C158.592 11.7168 158.739 11.045 159.033 10.4553C159.327 9.86505 159.75 9.40858 160.303 9.08564C160.856 8.76211 161.497 8.60034 162.228 8.60034C163.267 8.60034 164.115 8.91446 164.771 9.54211C165.428 10.1692 165.795 11.0215 165.871 12.0989L165.885 12.6183C165.885 13.7845 165.555 14.72 164.896 15.4248C164.237 16.1295 163.352 16.4815 162.242 16.4815C161.132 16.4815 160.246 16.13 159.585 15.4277C158.923 14.7256 158.592 13.77 158.592 12.5621V12.4706Z" fill="white"/>
<path fill-rule="evenodd" clip-rule="evenodd" d="M169.045 8.74093L169.109 9.61916C169.659 8.94005 170.397 8.60034 171.322 8.60034C172.137 8.60034 172.745 8.8374 173.143 9.31005C173.542 9.78269 173.745 10.49 173.755 11.4312V16.3409H171.699V11.4803C171.699 11.05 171.604 10.7371 171.414 10.543C171.224 10.3483 170.909 10.2512 170.467 10.2512C169.889 10.2512 169.455 10.495 169.165 10.9815V16.3409H167.109V8.74093H169.045Z" fill="white"/>
</g>
<path fill-rule="evenodd" clip-rule="evenodd" d="M51.5088 28.4007C51.4236 29.1751 51.1427 29.7672 50.6668 30.1784C50.1913 30.589 49.5579 30.7943 48.7666 30.7943C48.2139 30.7943 47.7255 30.6581 47.3007 30.3857C46.8761 30.1125 46.5478 29.7263 46.316 29.2263C46.0839 28.7266 45.9662 28.1551 45.9629 27.5119V26.5569C45.9629 25.904 46.0788 25.3248 46.3109 24.8198C46.5427 24.3146 46.8761 23.9251 47.3108 23.651C47.7458 23.376 48.2466 23.2393 48.8124 23.2393C49.6109 23.2393 50.2411 23.4513 50.7029 23.8754C51.1653 24.2998 51.4338 24.8875 51.5088 25.6384H50.8742C50.7175 24.3887 50.0304 23.764 48.8124 23.764C48.137 23.764 47.5989 24.0134 47.1982 24.5125C46.7974 25.0113 46.5969 25.6998 46.5969 26.5796V27.4796C46.5969 28.3287 46.7921 29.006 47.183 29.511C47.5736 30.0169 48.1015 30.2695 48.7666 30.2695C49.425 30.2695 49.9208 30.114 50.2554 29.8022C50.5894 29.4907 50.7962 29.0234 50.8742 28.4007H51.5088Z" fill="white"/>
<path fill-rule="evenodd" clip-rule="evenodd" d="M52.9668 30.6936H53.5812V22.9363H52.9668V30.6936Z" fill="white"/>
<path fill-rule="evenodd" clip-rule="evenodd" d="M55.3162 30.6938H55.9306V25.2291H55.3162V30.6938ZM55.209 23.6511C55.209 23.5373 55.2462 23.4409 55.3213 23.3623C55.3964 23.2835 55.4989 23.2444 55.6288 23.2444C55.7578 23.2444 55.8612 23.2835 55.9381 23.3623C56.0149 23.4409 56.0528 23.5373 56.0528 23.6511C56.0528 23.7644 56.0149 23.86 55.9381 23.9367C55.8612 24.0138 55.7578 24.0523 55.6288 24.0523C55.4989 24.0523 55.3964 24.0138 55.3213 23.9367C55.2462 23.86 55.209 23.7644 55.209 23.6511Z" fill="white"/>
<path fill-rule="evenodd" clip-rule="evenodd" d="M58.1746 25.2292L58.1954 26.1633C58.4034 25.8268 58.6623 25.57 58.9731 25.3933C59.2829 25.2168 59.6259 25.1277 60.0013 25.1277C60.5951 25.1277 61.0366 25.2933 61.3265 25.6227C61.6164 25.953 61.763 26.4477 61.7663 27.1077V30.6939H61.1576V27.1027C61.154 26.6144 61.0491 26.2512 60.8427 26.0118C60.6365 25.7727 60.3064 25.6533 59.8526 25.6533C59.4745 25.6533 59.1393 25.7703 58.8476 26.0042C58.5559 26.238 58.3402 26.5539 58.2005 26.9515V30.6939H57.5918V25.2292H58.1746Z" fill="white"/>
<path fill-rule="evenodd" clip-rule="evenodd" d="M63.4198 30.6938H64.0341V25.2291H63.4198V30.6938ZM63.3125 23.6511C63.3125 23.5373 63.3497 23.4409 63.4248 23.3623C63.4996 23.2835 63.6024 23.2444 63.7323 23.2444C63.8616 23.2444 63.9647 23.2835 64.0416 23.3623C64.1184 23.4409 64.1563 23.5373 64.1563 23.6511C64.1563 23.7644 64.1184 23.86 64.0416 23.9367C63.9647 24.0138 63.8616 24.0523 63.7323 24.0523C63.6024 24.0523 63.4996 24.0138 63.4248 23.9367C63.3497 23.86 63.3125 23.7644 63.3125 23.6511Z" fill="white"/>
<path fill-rule="evenodd" clip-rule="evenodd" d="M67.7425 30.2844C68.1692 30.2844 68.5264 30.1662 68.8145 29.9286C69.1029 29.6909 69.2587 29.3836 69.2826 29.0068H69.8713C69.854 29.3403 69.7483 29.6444 69.5543 29.9186C69.3595 30.193 69.1011 30.4074 68.7791 30.5624C68.4564 30.7174 68.1111 30.7944 67.7425 30.7944C67.0161 30.7944 66.4408 30.5456 66.0159 30.0474C65.5913 29.5492 65.3789 28.8786 65.3789 28.0368V27.8553C65.3789 27.3168 65.4748 26.8403 65.6655 26.4259C65.8565 26.0118 66.13 25.6918 66.4867 25.4662C66.8433 25.2409 67.2598 25.1277 67.7374 25.1277C68.3449 25.1277 68.8452 25.3062 69.2391 25.6633C69.633 26.0203 69.8442 26.49 69.8713 27.0724H69.2826C69.2555 26.6447 69.0993 26.2997 68.8145 26.0371C68.5297 25.7747 68.1709 25.6433 67.7374 25.6433C67.1848 25.6433 66.7563 25.84 66.4509 26.2342C66.1458 26.628 65.9933 27.1803 65.9933 27.8909V28.0674C65.9933 28.7642 66.1458 29.3086 66.4509 29.6986C66.7563 30.0892 67.1868 30.2844 67.7425 30.2844Z" fill="white"/>
<path fill-rule="evenodd" clip-rule="evenodd" d="M72.6637 30.2594C73.0734 30.2594 73.4387 30.1618 73.7614 29.9665C74.0834 29.7712 74.3179 29.51 74.4645 29.1833V27.9815H73.3702C72.7594 27.9886 72.2818 28.0986 71.9373 28.3124C71.5932 28.5265 71.4204 28.82 71.4204 29.1939C71.4204 29.5 71.5357 29.7544 71.7657 29.9565C71.9963 30.158 72.2958 30.2594 72.6637 30.2594ZM74.5876 30.6939C74.5262 30.5221 74.4866 30.2677 74.4696 29.9309C74.2548 30.2074 73.9812 30.42 73.6487 30.57C73.3159 30.7197 72.9644 30.7944 72.5925 30.7944C72.0601 30.7944 71.6296 30.6483 71.3 30.3553C70.9711 30.0624 70.8066 29.6921 70.8066 29.2444C70.8066 28.7124 71.031 28.2915 71.4797 27.9815C71.9278 27.6718 72.5526 27.5168 73.3544 27.5168H74.4645V26.8953C74.4645 26.5047 74.3429 26.1977 74.0992 25.9736C73.8552 25.7503 73.4992 25.6386 73.0323 25.6386C72.6056 25.6386 72.2529 25.7459 71.9731 25.9612C71.6933 26.1771 71.5533 26.4359 71.5533 26.7394L70.9395 26.7339C70.9395 26.2997 71.1445 25.9233 71.5533 25.6053C71.963 25.2868 72.4659 25.1277 73.0633 25.1277C73.68 25.1277 74.1672 25.28 74.5238 25.5847C74.8798 25.8897 75.0634 26.315 75.0732 26.86V29.4465C75.0732 29.9747 75.1301 30.37 75.2421 30.6333V30.6939H74.5876Z" fill="white"/>
<path fill-rule="evenodd" clip-rule="evenodd" d="M76.7773 30.6936H77.3917V22.9363H76.7773V30.6936Z" fill="white"/>
<path fill-rule="evenodd" clip-rule="evenodd" d="M82.3807 30.1687H86.0594V30.6937H81.7461V23.3398H82.3807V30.1687Z" fill="white"/>
<path fill-rule="evenodd" clip-rule="evenodd" d="M88.6927 30.2594C89.1024 30.2594 89.468 30.1618 89.7907 29.9665C90.1124 29.7712 90.3469 29.51 90.4938 29.1833V27.9815H89.3992C88.7884 27.9886 88.3111 28.0986 87.9663 28.3124C87.6222 28.5265 87.4494 28.82 87.4494 29.1939C87.4494 29.5 87.5647 29.7544 87.7947 29.9565C88.0256 30.158 88.3248 30.2594 88.6927 30.2594ZM90.6166 30.6939C90.5555 30.5221 90.5156 30.2677 90.4989 29.9309C90.2838 30.2074 90.0102 30.42 89.6777 30.57C89.3449 30.7197 88.9934 30.7944 88.6215 30.7944C88.0891 30.7944 87.6586 30.6483 87.329 30.3553C87.0001 30.0624 86.8359 29.6921 86.8359 29.2444C86.8359 28.7124 87.06 28.2915 87.5087 27.9815C87.9568 27.6718 88.5819 27.5168 89.3834 27.5168H90.4938V26.8953C90.4938 26.5047 90.3723 26.1977 90.1279 25.9736C89.8842 25.7503 89.5285 25.6386 89.0613 25.6386C88.6349 25.6386 88.2819 25.7459 88.0021 25.9612C87.7223 26.1771 87.5823 26.4359 87.5823 26.7394L86.9685 26.7339C86.9685 26.2997 87.1735 25.9233 87.5823 25.6053C87.992 25.2868 88.4949 25.1277 89.0923 25.1277C89.709 25.1277 90.1962 25.28 90.5528 25.5847C90.9089 25.8897 91.0924 26.315 91.1025 26.86V29.4465C91.1025 29.9747 91.1591 30.37 91.2712 30.6333V30.6939H90.6166Z" fill="white"/>
<path fill-rule="evenodd" clip-rule="evenodd" d="M96.5772 27.9107C96.5772 27.1904 96.436 26.6336 96.1524 26.2419C95.8696 25.8492 95.4707 25.6533 94.9555 25.6533C94.5634 25.6533 94.2306 25.7483 93.9577 25.9389C93.6851 26.1286 93.4789 26.4072 93.3392 26.7742V29.2395C93.6458 29.9263 94.1883 30.2695 94.966 30.2695C95.4707 30.2695 95.8652 30.0725 96.15 29.6786C96.4348 29.2848 96.5772 28.6957 96.5772 27.9107ZM97.1919 28.0172C97.1919 28.8686 97 29.5448 96.6184 30.0448C96.2361 30.5445 95.7227 30.7945 95.0783 30.7945C94.3075 30.7945 93.7241 30.5122 93.3284 29.946L93.3031 30.6936H92.7305V22.9363H93.3392V26.0222C93.728 25.4263 94.3036 25.1278 95.0682 25.1278C95.7227 25.1278 96.2409 25.3745 96.6207 25.868C97.0015 26.3613 97.1919 27.0472 97.1919 27.9263V28.0172Z" fill="white"/>
<path fill-rule="evenodd" clip-rule="evenodd" d="M98.8188 28.047C98.8188 28.7009 98.9902 29.237 99.3334 29.6556C99.676 30.075 100.125 30.2844 100.682 30.2844C101.233 30.2844 101.682 30.075 102.024 29.6556C102.367 29.237 102.538 28.6835 102.538 27.9968V27.8809C102.538 27.4629 102.46 27.0809 102.303 26.7338C102.146 26.3873 101.926 26.1188 101.643 25.9282C101.36 25.7385 101.036 25.6435 100.671 25.6435C100.125 25.6435 99.6805 25.8544 99.3355 26.2773C98.9911 26.6997 98.8188 27.2526 98.8188 27.9365V28.047ZM98.2051 27.8809C98.2051 27.3553 98.3079 26.8826 98.5146 26.4615C98.7208 26.0403 99.0122 25.7129 99.3891 25.4794C99.766 25.2453 100.193 25.1279 100.671 25.1279C101.407 25.1279 102.005 25.3829 102.462 25.8935C102.919 26.4035 103.147 27.0791 103.147 27.9206V28.047C103.147 28.5756 103.044 29.0518 102.838 29.4741C102.631 29.897 102.341 30.2223 101.965 30.4512C101.59 30.68 101.162 30.7944 100.682 30.7944C99.9481 30.7944 99.3522 30.5397 98.8933 30.0294C98.4345 29.5194 98.2051 28.8438 98.2051 28.0018V27.8809Z" fill="white"/>
<path fill-rule="evenodd" clip-rule="evenodd" d="M106.97 25.7442C106.84 25.7203 106.702 25.7086 106.556 25.7086C106.173 25.7086 105.85 25.8139 105.586 26.0247C105.321 26.2347 105.133 26.5403 105.021 26.9409V30.6939H104.412V25.2292H105.011L105.021 26.0974C105.345 25.4512 105.865 25.1277 106.581 25.1277C106.752 25.1277 106.887 25.15 106.985 25.1936L106.97 25.7442Z" fill="white"/>
<path fill-rule="evenodd" clip-rule="evenodd" d="M109.302 30.2594C109.712 30.2594 110.077 30.1618 110.4 29.9665C110.722 29.7712 110.957 29.51 111.103 29.1833V27.9815H110.009C109.398 27.9886 108.92 28.0986 108.576 28.3124C108.232 28.5265 108.059 28.82 108.059 29.1939C108.059 29.5 108.174 29.7544 108.404 29.9565C108.635 30.158 108.934 30.2594 109.302 30.2594ZM111.226 30.6939C111.165 30.5221 111.125 30.2677 111.109 29.9309C110.893 30.2074 110.62 30.42 110.287 30.57C109.954 30.7197 109.603 30.7944 109.231 30.7944C108.699 30.7944 108.268 30.6483 107.939 30.3553C107.61 30.0624 107.445 29.6921 107.445 29.2444C107.445 28.7124 107.67 28.2915 108.118 27.9815C108.566 27.6718 109.192 27.5168 109.993 27.5168H111.103V26.8953C111.103 26.5047 110.982 26.1977 110.738 25.9736C110.494 25.7503 110.138 25.6386 109.671 25.6386C109.244 25.6386 108.892 25.7459 108.612 25.9612C108.332 26.1771 108.192 26.4359 108.192 26.7394L107.578 26.7339C107.578 26.2997 107.783 25.9233 108.192 25.6053C108.601 25.2868 109.105 25.1277 109.702 25.1277C110.319 25.1277 110.806 25.28 111.162 25.5847C111.518 25.8897 111.702 26.315 111.712 26.86V29.4465C111.712 29.9747 111.768 30.37 111.881 30.6333V30.6939H111.226Z" fill="white"/>
<path fill-rule="evenodd" clip-rule="evenodd" d="M114.296 23.8301V25.2292H115.442V25.7242H114.296V29.3692C114.296 29.673 114.352 29.8986 114.462 30.0468C114.574 30.1954 114.758 30.2695 115.018 30.2695C115.12 30.2695 115.285 30.2527 115.514 30.2192L115.54 30.7098C115.379 30.7663 115.161 30.7945 114.885 30.7945C114.465 30.7945 114.159 30.6745 113.968 30.4336C113.777 30.193 113.682 29.8383 113.682 29.3707V25.7242H112.664V25.2292H113.682V23.8301H114.296Z" fill="white"/>
<path fill-rule="evenodd" clip-rule="evenodd" d="M116.883 28.047C116.883 28.7009 117.055 29.237 117.398 29.6556C117.74 30.075 118.19 30.2844 118.746 30.2844C119.298 30.2844 119.746 30.075 120.089 29.6556C120.432 29.237 120.603 28.6835 120.603 27.9968V27.8809C120.603 27.4629 120.524 27.0809 120.367 26.7338C120.21 26.3873 119.991 26.1188 119.708 25.9282C119.425 25.7385 119.1 25.6435 118.735 25.6435C118.19 25.6435 117.745 25.8544 117.4 26.2773C117.056 26.6997 116.883 27.2526 116.883 27.9365V28.047ZM116.27 27.8809C116.27 27.3553 116.372 26.8826 116.579 26.4615C116.785 26.0403 117.077 25.7129 117.454 25.4794C117.83 25.2453 118.258 25.1279 118.735 25.1279C119.472 25.1279 120.069 25.3829 120.526 25.8935C120.983 26.4035 121.212 27.0791 121.212 27.9206V28.047C121.212 28.5756 121.108 29.0518 120.902 29.4741C120.696 29.897 120.405 30.2223 120.03 30.4512C119.655 30.68 119.227 30.7944 118.746 30.7944C118.013 30.7944 117.417 30.5397 116.958 30.0294C116.499 29.5194 116.27 28.8438 116.27 28.0018V27.8809Z" fill="white"/>
<path fill-rule="evenodd" clip-rule="evenodd" d="M125.034 25.7442C124.905 25.7203 124.767 25.7086 124.62 25.7086C124.238 25.7086 123.914 25.8139 123.65 26.0247C123.386 26.2347 123.197 26.5403 123.085 26.9409V30.6939H122.477V25.2292H123.075L123.085 26.0974C123.409 25.4512 123.93 25.1277 124.645 25.1277C124.816 25.1277 124.951 25.15 125.05 25.1936L125.034 25.7442Z" fill="white"/>
<path fill-rule="evenodd" clip-rule="evenodd" d="M127.849 29.8248L129.465 25.2292H130.125L127.762 31.6231L127.639 31.9063C127.335 32.5692 126.866 32.9007 126.232 32.9007C126.085 32.9007 125.928 32.8772 125.761 32.8298L125.756 32.3304L126.073 32.3601C126.373 32.3601 126.616 32.2875 126.802 32.1407C126.988 31.9945 127.145 31.7425 127.275 31.3854L127.547 30.6484L125.459 25.2292H126.129L127.849 29.8248Z" fill="white"/>
</g>
<defs>
<clipPath id="clip0">
<rect width="174" height="40" fill="white"/>
</clipPath>
</defs>
</svg>
