<?xml version="1.0" encoding="UTF-8" standalone="no"?>
<!-- Created with Inkscape (http://www.inkscape.org/) -->

<svg
   xmlns:dc="http://purl.org/dc/elements/1.1/"
   xmlns:cc="http://creativecommons.org/ns#"
   xmlns:rdf="http://www.w3.org/1999/02/22-rdf-syntax-ns#"
   xmlns:svg="http://www.w3.org/2000/svg"
   xmlns="http://www.w3.org/2000/svg"
   xmlns:sodipodi="http://sodipodi.sourceforge.net/DTD/sodipodi-0.dtd"
   xmlns:inkscape="http://www.inkscape.org/namespaces/inkscape"
   width="903"
   height="174"
   viewBox="0 0 238.91773 46.037509"
   version="1.1"
   id="svg8"
   inkscape:version="0.92.4 (5da689c313, 2019-01-14)"
   sodipodi:docname="laboratory-logo.svg">
  <defs
     id="defs2" />
  <sodipodi:namedview
     id="base"
     pagecolor="#ffffff"
     bordercolor="#666666"
     borderopacity="1.0"
     inkscape:pageopacity="0.0"
     inkscape:pageshadow="2"
     inkscape:zoom="0.70000001"
     inkscape:cx="302.93893"
     inkscape:cy="338.9409"
     inkscape:document-units="mm"
     inkscape:current-layer="layer1"
     showgrid="false"
     inkscape:window-width="1920"
     inkscape:window-height="1017"
     inkscape:window-x="1072"
     inkscape:window-y="-8"
     inkscape:window-maximized="1"
     units="px"
     inkscape:snap-global="false" />
  <metadata
     id="metadata5">
    <rdf:RDF>
      <cc:Work
         rdf:about="">
        <dc:format>image/svg+xml</dc:format>
        <dc:type
           rdf:resource="http://purl.org/dc/dcmitype/StillImage" />
        <dc:title></dc:title>
      </cc:Work>
    </rdf:RDF>
  </metadata>
  <g
     inkscape:label="Layer 1"
     inkscape:groupmode="layer"
     id="layer1"
     transform="translate(0,-250.96235)">
    <g
       id="g3767"
       transform="matrix(0.26458333,0,0,0.26458333,-1.2624395,250.11205)">
      <g
         id="g3765">
        <path
           style="fill:#177dbc"
           inkscape:connector-curvature="0"
           class="st0"
           d="m 87.3,95.7 c -9.8,0 -17.7,-8 -17.7,-17.7 0,-9.7 8,-17.7 17.7,-17.7 9.7,0 17.7,7.9 17.7,17.7 0,9.8 -7.9,17.7 -17.7,17.7 m 28,-45.5 h -28 c -15,0 -27.2,12.9 -27.2,27.9 0,15 12.5,27.5 27.5,27.5 0.1,0 16.4,-0.4 16.2,8.7 -0.1,5.7 -18.1,17.4 -18.1,17.4 v 10.6 c 0,0 26.3,-15.2 28.8,-27.2 2.3,-10.8 -8.3,-14.3 -10.1,-15.2 6.2,-5 10.1,-13.5 10.1,-22 0,-7 -2.7,-12.1 -7,-19 h 7.8 z"
           id="path3715" />
        <path
           style="fill:#177dbc"
           inkscape:connector-curvature="0"
           class="st0"
           d="m 41.8,37.9 c 1.6,-1.5 3.3,-2.9 5.1,-4.3 l -5.6,-7.7 c -2.1,1.6 -4.1,3.3 -6.1,5.1 z"
           id="path3717" />
        <path
           style="fill:#177dbc"
           inkscape:connector-curvature="0"
           class="st0"
           d="m 49.7,31.6 c 1.8,-1.3 3.7,-2.4 5.6,-3.5 l -4.5,-8.4 c -2.3,1.3 -4.5,2.7 -6.7,4.2 z"
           id="path3719" />
        <path
           style="fill:#177dbc"
           inkscape:connector-curvature="0"
           class="st0"
           d="m 33.3,47.3 c 1.9,-2.4 3.9,-4.7 6,-6.9 l -6.6,-6.9 c -2.5,2.6 -4.9,5.3 -7.1,8.1 z"
           id="path3721" />
        <path
           style="fill:#177dbc"
           inkscape:connector-curvature="0"
           class="st0"
           d="m 18.8,83.1 c 0.4,-3.7 1.1,-7.4 2.1,-11 l -9.2,-2.8 c -1.2,4.2 -2,8.4 -2.5,12.8 z"
           id="path3723" />
        <path
           style="fill:#177dbc"
           inkscape:connector-curvature="0"
           class="st0"
           d="m 27.2,56.5 c 1.2,-2.2 2.6,-4.4 4,-6.5 l -7.7,-5.6 c -1.7,2.5 -3.3,5.1 -4.8,7.7 z"
           id="path3725" />
        <path
           style="fill:#177dbc"
           inkscape:connector-curvature="0"
           class="st0"
           d="m 21.9,68.8 c 1,-3.2 2.3,-6.2 3.7,-9.2 l -8.5,-4.4 c -1.7,3.5 -3.2,7.1 -4.4,10.8 z"
           id="path3727" />
        <path
           style="fill:#177dbc"
           inkscape:connector-curvature="0"
           class="st0"
           d="m 58.3,26.4 c 5.5,-2.8 11.4,-4.9 17.5,-6.2 L 74,10.8 c -7.1,1.5 -13.9,4 -20.2,7.2 z"
           id="path3729" />
        <path
           style="fill:#177dbc"
           inkscape:connector-curvature="0"
           class="st0"
           d="m 148.3,136.8 c -3.9,4.9 -8.5,9.4 -13.6,13.2 l 5.5,7.8 c 5.9,-4.3 11.1,-9.5 15.7,-15.2 z"
           id="path3731" />
        <path
           style="fill:#177dbc"
           inkscape:connector-curvature="0"
           class="st0"
           d="m 77.5,10.2 1.8,9.4 c 2.6,-0.4 5.2,-0.7 7.8,-0.9 L 86.8,9.1 c -3.2,0.2 -6.3,0.6 -9.3,1.1"
           id="path3733" />
        <path
           style="fill:#177dbc"
           inkscape:connector-curvature="0"
           class="st0"
           d="m 164.1,91.5 c 0,7.4 -1.1,14.5 -3.2,21.3 l 9.1,3 c 2.4,-7.7 3.6,-15.8 3.6,-24.3 0,-0.1 0,-0.2 0,-0.3 l -9.5,0.3 v 0"
           id="path3735" />
        <path
           style="fill:#177dbc"
           inkscape:connector-curvature="0"
           class="st0"
           d="m 168.8,63.4 -8.9,3.5 c 2.4,6.6 3.9,13.7 4.2,21.1 l 9.6,-0.2 C 173.2,79.2 171.5,71 168.8,63.4"
           id="path3737" />
        <path
           style="fill:#177dbc"
           inkscape:connector-curvature="0"
           class="st0"
           d="m 146.2,43.7 c 5.1,5.9 9.4,12.6 12.4,19.9 l 8.9,-3.5 C 164,51.7 159.2,43.9 153.2,37.2 Z"
           id="path3739" />
        <path
           style="fill:#177dbc"
           inkscape:connector-curvature="0"
           class="st0"
           d="m 121.3,25.1 c 8.5,3.9 16.1,9.3 22.5,16 l 7.1,-6.5 C 143.6,26.9 134.8,20.7 125.1,16.3 Z"
           id="path3741" />
        <path
           style="fill:#177dbc"
           inkscape:connector-curvature="0"
           class="st0"
           d="m 116.1,170.2 -3.1,-9.1 c -5.4,1.7 -11,2.7 -16.8,3.1 l 0.4,9.6 c 6.7,-0.4 13.3,-1.7 19.5,-3.6"
           id="path3743" />
        <path
           style="fill:#177dbc"
           inkscape:connector-curvature="0"
           class="st0"
           d="m 159.9,116.1 c -2.3,6.5 -5.5,12.5 -9.5,18 l 7.6,5.8 c 4.6,-6.3 8.3,-13.3 10.9,-20.7 z"
           id="path3745" />
        <path
           style="fill:#177dbc"
           inkscape:connector-curvature="0"
           class="st0"
           d="m 131.9,152 c -4.8,3.3 -10.1,6 -15.6,8 l 3.1,9.1 c 6.4,-2.3 12.5,-5.5 18.1,-9.3 z"
           id="path3747" />
        <path
           style="fill:#177dbc"
           inkscape:connector-curvature="0"
           class="st0"
           d="m 90.6,18.6 c 0.2,0 0.4,0 0.7,0 9.5,0 18.6,1.8 26.9,5.2 L 121.9,15 C 112.4,11.1 102,9 91.2,9 c -0.3,0 -0.6,0 -1,0 z"
           id="path3749" />
        <path
           style="fill:#177dbc"
           inkscape:connector-curvature="0"
           class="st0"
           d="m 18.3,91.5 c 0,-1.7 0.1,-3.3 0.2,-4.9 L 9,85.7 c -0.1,1.9 -0.2,3.8 -0.2,5.8 0,2.3 0.1,4.6 0.3,6.9 l 9.5,-1 c -0.2,-1.9 -0.3,-3.9 -0.3,-5.9"
           id="path3751" />
        <path
           style="fill:#177dbc"
           inkscape:connector-curvature="0"
           class="st0"
           d="m 92.7,164.4 c -0.5,0 -1,0 -1.5,0 -4.9,0 -9.6,-0.5 -14.2,-1.4 l -2.1,9.4 c 5.3,1.1 10.7,1.6 16.3,1.6 0.7,0 1.3,0 1.9,0 z"
           id="path3753" />
        <path
           style="fill:#177dbc"
           inkscape:connector-curvature="0"
           class="st0"
           d="m 21.6,113.3 c -1.3,-4 -2.2,-8.2 -2.7,-12.4 l -9.5,1 c 0.6,5 1.7,9.8 3.2,14.5 z"
           id="path3755" />
        <path
           style="fill:#177dbc"
           inkscape:connector-curvature="0"
           class="st0"
           d="m 28.6,128.8 c -2.3,-3.9 -4.3,-8 -5.8,-12.2 l -9.1,3.1 c 1.8,5 4.1,9.8 6.8,14.2 z"
           id="path3757" />
        <path
           style="fill:#177dbc"
           inkscape:connector-curvature="0"
           class="st0"
           d="m 54.7,154.6 c -4.6,-2.7 -8.9,-5.9 -12.8,-9.5 l -6.6,6.9 c 4.5,4.2 9.5,7.9 14.9,11 z"
           id="path3759" />
        <path
           style="fill:#177dbc"
           inkscape:connector-curvature="0"
           class="st0"
           d="m 39.3,142.7 c -3.3,-3.3 -6.3,-7 -8.9,-10.9 l -8.1,5.1 c 3,4.6 6.5,8.8 10.3,12.7 z"
           id="path3761" />
        <path
           style="fill:#177dbc"
           inkscape:connector-curvature="0"
           class="st0"
           d="m 73.6,162.3 c -5.6,-1.4 -10.9,-3.4 -15.9,-6 l -4.6,8.4 c 5.8,3 11.9,5.4 18.4,7 z"
           id="path3763" />
      </g>
    </g>
    <g
       id="g3783"
       transform="matrix(0.38419647,0,0,0.38419647,-22.962656,254.60475)">
      <path
         inkscape:connector-curvature="0"
         d="m 225.9,52 c -1.6,1.9 -3.8,3.4 -6.8,4.4 -2.9,1 -6.2,1.6 -9.6,1.6 -3.7,0 -6.9,-0.8 -9.8,-2.4 -2.8,-1.6 -4.9,-4 -6.5,-7 -1.6,-3.1 -2.3,-6.7 -2.3,-10.8 v -2.9 c 0,-4.2 0.7,-8 2.2,-11.1 1.5,-3.1 3.6,-5.5 6.2,-7.2 2.7,-1.6 5.9,-2.5 9.5,-2.5 5.1,0 9.1,1.2 12,3.6 2.9,2.4 4.6,6 5.1,10.6 h -8.6 c -0.4,-2.4 -1.3,-4.2 -2.6,-5.4 -1.4,-1.1 -3.2,-1.7 -5.5,-1.7 -3,0 -5.3,1.1 -6.8,3.4 -1.5,2.3 -2.3,5.6 -2.3,10.1 v 2.8 c 0,4.5 0.9,7.9 2.6,10.2 1.7,2.3 4.2,3.5 7.5,3.5 3.3,0 5.7,-0.7 7.1,-2.1 v -7.4 h -8.1 V 35 h 16.9 z"
         id="path3769" />
      <path
         inkscape:connector-curvature="0"
         d="m 247.1,58.1 c -4.7,0 -8.5,-1.5 -11.4,-4.3 -2.9,-2.9 -4.4,-6.7 -4.4,-11.4 v -0.9 c 0,-3.2 0.6,-6.1 1.8,-8.6 1.2,-2.5 3,-4.5 5.3,-5.8 2.3,-1.4 4.9,-2.1 7.8,-2.1 4.3,0 7.8,1.4 10.3,4.2 2.5,2.8 3.7,6.7 3.7,11.7 v 3.5 h -20.3 c 0.3,2.1 1.1,3.7 2.5,5 1.4,1.3 3.1,1.9 5.3,1.9 3.3,0 5.8,-1.2 7.7,-3.6 l 4.2,4.7 c -1.3,1.8 -3,3.2 -5.2,4.2 -2.1,0.9 -4.6,1.5 -7.3,1.5 z m -0.9,-26.3 c -1.6,0 -3,0.6 -4.1,1.7 -1.1,1.1 -1.7,2.8 -2,4.9 H 252 v -0.7 c 0,-1.9 -0.5,-3.4 -1.6,-4.4 -1,-1 -2.4,-1.5 -4.2,-1.5 z"
         id="path3771" />
      <path
         inkscape:connector-curvature="0"
         d="m 273,25.6 0.3,3.7 c 2.3,-2.9 5.3,-4.2 9.2,-4.2 3.4,0 5.9,1 7.5,2.9 1.6,2 2.5,4.9 2.5,8.9 V 57.5 H 284 V 37.1 c 0,-1.8 -0.4,-3.1 -1.2,-3.9 -0.8,-0.8 -2.1,-1.2 -3.9,-1.2 -2.4,0 -4.2,1 -5.4,3 V 57.4 H 265 V 25.6 Z"
         id="path3773" />
      <path
         inkscape:connector-curvature="0"
         d="m 297.6,41.2 c 0,-3.1 0.6,-6 1.8,-8.4 1.2,-2.5 2.9,-4.4 5.3,-5.7 2.3,-1.4 4.9,-2 8,-2 4.3,0 7.8,1.3 10.6,4 2.8,2.7 4.2,6.2 4.6,10.7 L 328,42 c 0,4.9 -1.4,8.8 -4.1,11.8 -2.7,3 -6.4,4.4 -11,4.4 -4.6,0 -8.2,-1.5 -11,-4.4 -2.8,-2.9 -4.1,-6.9 -4.1,-12 z m 8.5,0.7 c 0,3 0.6,5.4 1.7,6.9 1.1,1.6 2.8,2.4 4.9,2.4 2.1,0 3.6,-0.8 4.9,-2.3 1.1,-1.6 1.7,-4.2 1.7,-7.6 0,-2.9 -0.6,-5.3 -1.7,-6.9 -1.1,-1.6 -2.8,-2.4 -4.9,-2.4 -2.1,0 -3.7,0.8 -4.9,2.4 -1.1,1.5 -1.7,4 -1.7,7.5 z"
         id="path3775" />
      <path
         inkscape:connector-curvature="0"
         d="m 341,25.6 0.3,3.6 c 2.3,-2.8 5.3,-4.2 9.2,-4.2 4.1,0 6.9,1.6 8.4,4.9 2.3,-3.2 5.5,-4.9 9.5,-4.9 3.5,0 6.1,1 7.7,3 1.6,2 2.5,5 2.5,9.1 v 20.4 h -8.5 V 37.1 c 0,-1.8 -0.3,-3.1 -1,-4 -0.7,-0.9 -1.9,-1.3 -3.7,-1.3 -2.5,0 -4.3,1.2 -5.3,3.6 v 21.8 h -8.5 v -20 c 0,-1.8 -0.3,-3.2 -1.1,-4 -0.7,-0.9 -2,-1.2 -3.7,-1.2 -2.4,0 -4.2,1 -5.2,3 V 57.5 H 333 v -32 h 8 z"
         id="path3777" />
      <path
         inkscape:connector-curvature="0"
         d="m 385.2,17.3 c 0,-1.3 0.4,-2.3 1.3,-3.1 0.9,-0.9 2,-1.2 3.5,-1.2 1.5,0 2.6,0.4 3.5,1.2 0.9,0.9 1.3,1.9 1.3,3.1 0,1.3 -0.4,2.3 -1.3,3.2 -0.9,0.9 -2,1.2 -3.5,1.2 -1.5,0 -2.6,-0.4 -3.5,-1.2 -0.9,-0.8 -1.3,-1.9 -1.3,-3.2 z m 9,40.2 h -8.5 V 25.6 h 8.5 z"
         id="path3779" />
      <path
         inkscape:connector-curvature="0"
         d="m 414.5,51.1 c 1.6,0 2.9,-0.4 3.8,-1.3 1,-0.9 1.5,-2 1.6,-3.5 h 8 c 0,2.2 -0.6,4.2 -1.7,5.9 -1.1,1.8 -2.8,3.2 -4.8,4.2 -2,1 -4.2,1.5 -6.7,1.5 -4.6,0 -8.1,-1.5 -10.7,-4.3 -2.6,-2.8 -4,-6.9 -4,-12 v -0.5 c 0,-4.9 1.3,-8.8 3.9,-11.8 2.6,-2.9 6.2,-4.4 10.7,-4.4 4,0 7.2,1.1 9.6,3.4 2.4,2.3 3.6,5.3 3.6,9 h -8 c 0,-1.6 -0.5,-3 -1.6,-4.1 -1,-1 -2.3,-1.6 -3.9,-1.6 -2,0 -3.5,0.7 -4.5,2.2 -1,1.5 -1.6,3.8 -1.6,7 v 0.9 c 0,3.3 0.5,5.6 1.5,7.1 1.2,1.6 2.8,2.3 4.8,2.3 z"
         id="path3781" />
    </g>
    <g
       id="g3805"
       transform="matrix(0.33555849,0,0,0.33555849,82.113335,238.34944)">
      <path
         inkscape:connector-curvature="0"
         d="m 200.8,98.4 v 15.1 H 192 V 70.7 h 16.7 c 3.2,0 6.1,0.6 8.5,1.7 2.4,1.2 4.3,2.9 5.6,5 1.3,2.1 2,4.7 2,7.5 0,4.2 -1.5,7.5 -4.3,10 -2.8,2.5 -6.8,3.6 -12,3.6 z m 0,-7.1 h 7.9 c 2.3,0 4.2,-0.5 5.4,-1.6 1.2,-1.1 1.8,-2.7 1.8,-4.7 0,-2.1 -0.6,-3.8 -1.8,-5.1 -1.2,-1.3 -2.9,-2 -5.1,-2 h -8.1 z"
         id="path3785" />
      <path
         inkscape:connector-curvature="0"
         d="m 248.2,89.7 c -1.1,-0.2 -2.2,-0.3 -3,-0.3 -3.2,0 -5.3,1.1 -6.3,3.3 v 20.9 h -8.5 V 81.7 h 8.1 l 0.3,3.8 c 1.7,-2.9 4.1,-4.4 7.1,-4.4 1,0 1.8,0.1 2.7,0.3 z"
         id="path3787" />
      <path
         inkscape:connector-curvature="0"
         d="m 266.4,114.1 c -4.7,0 -8.5,-1.5 -11.4,-4.3 -2.9,-2.9 -4.4,-6.7 -4.4,-11.4 v -0.9 c 0,-3.2 0.6,-6.1 1.8,-8.6 1.2,-2.5 3,-4.5 5.3,-5.8 2.3,-1.4 4.9,-2.1 7.8,-2.1 4.3,0 7.8,1.4 10.3,4.2 2.5,2.8 3.7,6.7 3.7,11.7 v 3.5 h -20.3 c 0.3,2.1 1.1,3.7 2.5,5 1.4,1.3 3.1,1.9 5.3,1.9 3.3,0 5.8,-1.2 7.7,-3.6 l 4.2,4.7 c -1.3,1.8 -3,3.2 -5.2,4.2 -2.2,1.1 -4.6,1.5 -7.3,1.5 z m -1,-26.1 c -1.6,0 -3,0.6 -4.1,1.7 -1,1.1 -1.7,2.8 -2,4.9 h 11.9 v -0.7 c 0,-1.9 -0.5,-3.4 -1.6,-4.4 -1,-1 -2.4,-1.5 -4.2,-1.5 z"
         id="path3789" />
      <path
         inkscape:connector-curvature="0"
         d="m 283,97.4 c 0,-4.9 1.1,-8.9 3.4,-11.9 2.3,-2.9 5.3,-4.4 9.1,-4.4 3.1,0 5.6,1.1 7.7,3.5 V 68.4 h 8.6 v 45.2 h -7.7 l -0.4,-3.4 c -2.1,2.7 -4.9,4 -8.2,4 -3.7,0 -6.8,-1.5 -9,-4.4 -2.4,-3 -3.5,-7.1 -3.5,-12.4 z m 8.5,0.6 c 0,2.9 0.5,5.3 1.6,6.8 1.1,1.5 2.5,2.4 4.5,2.4 2.6,0 4.5,-1.1 5.5,-3.3 V 91.3 c -1,-2.3 -2.9,-3.3 -5.5,-3.3 -4,0 -6.1,3.3 -6.1,10 z"
         id="path3791" />
      <path
         inkscape:connector-curvature="0"
         d="m 318.3,73.5 c 0,-1.3 0.4,-2.3 1.3,-3.1 0.9,-0.9 2,-1.2 3.5,-1.2 1.5,0 2.6,0.4 3.5,1.2 0.9,0.9 1.3,1.9 1.3,3.1 0,1.3 -0.4,2.3 -1.3,3.2 -0.9,0.9 -2,1.2 -3.5,1.2 -1.5,0 -2.6,-0.4 -3.5,-1.2 -0.9,-0.9 -1.3,-1.9 -1.3,-3.2 z m 9,40.1 h -8.5 V 81.7 h 8.5 z"
         id="path3793" />
      <path
         inkscape:connector-curvature="0"
         d="m 347.6,107.3 c 1.6,0 2.9,-0.4 3.8,-1.3 1,-0.9 1.5,-2 1.6,-3.5 h 8 c 0,2.2 -0.6,4.2 -1.7,5.9 -1.1,1.8 -2.8,3.2 -4.8,4.2 -2,1 -4.2,1.5 -6.7,1.5 -4.6,0 -8.1,-1.5 -10.7,-4.3 -2.6,-2.9 -4,-6.9 -4,-12 v -0.5 c 0,-4.9 1.3,-8.8 3.9,-11.8 2.6,-3 6.2,-4.4 10.7,-4.4 4,0 7.2,1.1 9.6,3.4 2.4,2.3 3.6,5.3 3.6,9 h -8 c 0,-1.6 -0.5,-3 -1.6,-4.1 -1,-1 -2.3,-1.6 -3.9,-1.6 -2,0 -3.5,0.7 -4.5,2.2 -1,1.5 -1.6,3.8 -1.6,7 v 0.9 c 0,3.3 0.5,5.6 1.5,7.1 1.2,1.6 2.8,2.3 4.8,2.3 z"
         id="path3795" />
      <path
         inkscape:connector-curvature="0"
         d="m 376,73.9 v 7.8 h 5.5 V 88 H 376 v 15.9 c 0,1.2 0.3,2 0.7,2.5 0.4,0.5 1.3,0.8 2.6,0.8 1,0 1.7,-0.1 2.5,-0.2 v 6.4 c -1.6,0.5 -3.4,0.8 -5.1,0.8 -6,0 -9,-3 -9.1,-9 V 88 h -4.7 v -6.2 h 4.7 V 74 h 8.4 z"
         id="path3797" />
      <path
         inkscape:connector-curvature="0"
         d="m 386.1,73.5 c 0,-1.3 0.4,-2.3 1.3,-3.1 0.9,-0.9 2,-1.2 3.5,-1.2 1.5,0 2.6,0.4 3.5,1.2 0.9,0.9 1.3,1.9 1.3,3.1 0,1.3 -0.4,2.3 -1.3,3.2 -0.9,0.9 -2,1.2 -3.5,1.2 -1.5,0 -2.6,-0.4 -3.5,-1.2 -0.8,-0.9 -1.3,-1.9 -1.3,-3.2 z m 9,40.1 h -8.5 V 81.7 h 8.5 z"
         id="path3799" />
      <path
         inkscape:connector-curvature="0"
         d="m 400.9,97.3 c 0,-3.1 0.6,-6 1.8,-8.4 1.2,-2.5 2.9,-4.4 5.3,-5.7 2.3,-1.4 4.9,-2 8,-2 4.3,0 7.8,1.3 10.6,4 2.7,2.6 4.2,6.2 4.6,10.7 l 0.1,2.2 c 0,4.9 -1.4,8.8 -4.1,11.8 -2.7,3 -6.4,4.4 -11,4.4 -4.6,0 -8.2,-1.5 -11,-4.4 -2.8,-2.9 -4.1,-6.9 -4.1,-12 v -0.5 h -0.2 z m 8.5,0.6 c 0,3 0.6,5.4 1.7,6.9 1.1,1.6 2.8,2.4 4.9,2.4 2.1,0 3.6,-0.8 4.9,-2.3 1.1,-1.6 1.7,-4.2 1.7,-7.6 0,-2.9 -0.6,-5.3 -1.7,-6.9 -1.1,-1.6 -2.8,-2.4 -4.9,-2.4 -2.1,0 -3.7,0.8 -4.9,2.4 -1.2,1.6 -1.7,4.1 -1.7,7.5 z"
         id="path3801" />
      <path
         inkscape:connector-curvature="0"
         d="m 444.1,81.7 0.3,3.7 c 2.3,-2.9 5.3,-4.2 9.2,-4.2 3.4,0 5.9,1 7.5,2.9 1.6,2 2.5,4.9 2.5,8.9 v 20.6 h -8.5 V 93.3 c 0,-1.8 -0.4,-3.1 -1.2,-3.9 -0.8,-0.8 -2.1,-1.2 -3.9,-1.2 -2.4,0 -4.2,1 -5.4,3 v 22.4 h -8.5 v -32 h 8 z"
         id="path3803" />
    </g>
    <g
       id="g3843"
       transform="matrix(0.46478773,0,0,0.46478773,-0.32635122,-33.830628)">
      <path
         style="fill:#177dbc"
         inkscape:connector-curvature="0"
         class="st0"
         d="m 114.49534,699.347 h 12 v 1.7 h -14 v -24.1 h 2.1 z"
         id="path3823" />
      <path
         style="fill:#177dbc"
         inkscape:connector-curvature="0"
         class="st0"
         d="m 141.19534,701.047 c -0.2,-0.5 -0.3,-1.4 -0.3,-2.5 -0.7,0.9 -1.6,1.6 -2.7,2.1 -1,0.5 -2.3,0.7 -3.4,0.7 -1.7,0 -3.1,-0.5 -4.2,-1.5 -1,-1 -1.6,-2.2 -1.6,-3.6 0,-1.7 0.7,-3.1 2.2,-4.2 1.5,-1 3.5,-1.6 6.1,-1.6 h 3.6 v -2.1 c 0,-1.3 -0.4,-2.3 -1.2,-3 -0.8,-0.8 -1.9,-1.1 -3.5,-1.1 -1.4,0 -2.5,0.3 -3.5,1 -0.9,0.7 -1.4,1.6 -1.4,2.6 h -2 c 0,-1.4 0.7,-2.7 2,-3.7 1.3,-1 2.9,-1.6 4.9,-1.6 2,0 3.6,0.5 4.8,1.5 1.1,1 1.7,2.4 1.7,4.2 v 8.5 c 0,1.7 0.2,3 0.5,3.9 v 0.2 z m -6.2,-1.4 c 1.3,0 2.5,-0.3 3.6,-1 1,-0.6 1.8,-1.5 2.3,-2.6 v -4 h -3.6 c -2,0 -3.6,0.3 -4.7,1.1 -1.1,0.7 -1.6,1.6 -1.6,2.9 0,1 0.3,1.8 1.1,2.5 0.7,0.7 1.7,1.1 2.9,1.1 z"
         id="path3825" />
      <path
         style="fill:#177dbc"
         inkscape:connector-curvature="0"
         class="st0"
         d="m 162.49534,692.247 c 0,2.8 -0.6,5 -1.8,6.7 -1.2,1.6 -2.9,2.4 -5,2.4 -2.5,0 -4.4,-1 -5.6,-2.8 l -0.1,2.4 h -1.8 v -25.5 h 2 v 10.2 c 1.2,-2 3.1,-2.9 5.6,-2.9 2.2,0 3.8,0.8 5,2.4 1.2,1.6 1.8,3.9 1.8,6.8 z m -2,-0.3 c 0,-2.3 -0.4,-4.2 -1.4,-5.5 -1,-1.3 -2.3,-1.9 -3.9,-1.9 -1.3,0 -2.3,0.3 -3.2,1 -0.9,0.6 -1.6,1.6 -2,2.8 v 8.1 c 1,2.3 2.8,3.4 5.3,3.4 1.6,0 2.9,-0.6 3.8,-1.9 0.9,-1.5 1.4,-3.4 1.4,-6 z"
         id="path3827" />
      <path
         style="fill:#177dbc"
         inkscape:connector-curvature="0"
         class="st0"
         d="m 165.79534,691.847 c 0,-1.7 0.3,-3.3 1,-4.7 0.7,-1.4 1.6,-2.4 2.9,-3.2 1.3,-0.8 2.6,-1.1 4.2,-1.1 2.4,0 4.3,0.9 5.8,2.5 1.5,1.6 2.3,3.9 2.3,6.7 v 0.4 c 0,1.7 -0.3,3.3 -1,4.7 -0.7,1.4 -1.6,2.4 -2.9,3.2 -1.3,0.8 -2.6,1.1 -4.2,1.1 -2.3,0 -4.3,-0.9 -5.8,-2.5 -1.5,-1.6 -2.3,-3.9 -2.3,-6.7 z m 2,0.5 c 0,2.2 0.5,3.9 1.6,5.3 1.1,1.4 2.6,2.1 4.3,2.1 1.8,0 3.2,-0.7 4.3,-2.1 1.1,-1.4 1.6,-3.2 1.6,-5.5 v -0.3 c 0,-1.4 -0.3,-2.6 -0.8,-3.7 -0.5,-1.1 -1.2,-2 -2.2,-2.7 -1,-0.6 -2,-1 -3.1,-1 -1.7,0 -3.2,0.7 -4.3,2.1 -1.1,1.4 -1.6,3.2 -1.6,5.5 z"
         id="path3829" />
      <path
         style="fill:#177dbc"
         inkscape:connector-curvature="0"
         class="st0"
         d="m 194.19534,684.847 c -0.4,-0.1 -0.9,-0.1 -1.3,-0.1 -1.2,0 -2.3,0.3 -3.1,1 -0.9,0.7 -1.5,1.6 -1.8,3 v 12.3 h -2 v -17.9 h 1.9 v 2.9 c 1,-2.2 2.8,-3.2 5,-3.2 0.5,0 1,0.1 1.3,0.2 z"
         id="path3831" />
      <path
         style="fill:#177dbc"
         inkscape:connector-curvature="0"
         class="st0"
         d="m 207.89534,701.047 c -0.2,-0.5 -0.3,-1.4 -0.3,-2.5 -0.7,0.9 -1.6,1.6 -2.7,2.1 -1,0.5 -2.3,0.7 -3.4,0.7 -1.7,0 -3.1,-0.5 -4.2,-1.5 -1,-1 -1.6,-2.2 -1.6,-3.6 0,-1.7 0.7,-3.1 2.2,-4.2 1.5,-1 3.5,-1.6 6.1,-1.6 h 3.6 v -2.1 c 0,-1.3 -0.4,-2.3 -1.2,-3 -0.8,-0.7 -1.9,-1.1 -3.5,-1.1 -1.4,0 -2.5,0.3 -3.5,1 -0.9,0.7 -1.4,1.6 -1.4,2.6 h -2 c 0,-1.4 0.7,-2.7 2,-3.7 1.3,-1 2.9,-1.6 4.9,-1.6 2,0 3.6,0.5 4.8,1.5 1.1,1 1.7,2.4 1.7,4.2 v 8.5 c 0,1.7 0.2,3 0.5,3.9 v 0.2 z m -6.2,-1.4 c 1.3,0 2.5,-0.3 3.6,-1 1,-0.6 1.8,-1.5 2.3,-2.6 v -4 h -3.6 c -2,0 -3.6,0.3 -4.7,1.1 -1.1,0.7 -1.6,1.6 -1.6,2.9 0,1 0.3,1.8 1.1,2.5 0.8,0.7 1.8,1.1 2.9,1.1 z"
         id="path3833" />
      <path
         style="fill:#177dbc"
         inkscape:connector-curvature="0"
         class="st0"
         d="m 217.89534,678.547 v 4.6 h 3.7 v 1.6 h -3.7 v 12 c 0,1 0.2,1.7 0.5,2.3 0.3,0.5 1,0.7 1.8,0.7 0.3,0 0.9,-0.1 1.6,-0.2 l 0.1,1.6 c -0.5,0.2 -1.2,0.3 -2.2,0.3 -1.4,0 -2.3,-0.4 -2.9,-1.2 -0.6,-0.8 -1,-2 -1,-3.5 v -12 h -3.3 v -1.6 h 3.3 v -4.6 z"
         id="path3835" />
      <path
         style="fill:#177dbc"
         inkscape:connector-curvature="0"
         class="st0"
         d="m 224.29534,691.847 c 0,-1.7 0.3,-3.3 1,-4.7 0.7,-1.4 1.6,-2.4 2.9,-3.2 1.3,-0.8 2.6,-1.1 4.2,-1.1 2.4,0 4.3,0.9 5.8,2.5 1.5,1.6 2.3,3.9 2.3,6.7 v 0.4 c 0,1.7 -0.3,3.3 -1,4.7 -0.7,1.4 -1.6,2.4 -2.9,3.2 -1.3,0.8 -2.6,1.1 -4.2,1.1 -2.3,0 -4.3,-0.9 -5.8,-2.5 -1.5,-1.6 -2.3,-3.9 -2.3,-6.7 z m 2,0.5 c 0,2.2 0.5,3.9 1.6,5.3 1.1,1.4 2.6,2.1 4.3,2.1 1.8,0 3.2,-0.7 4.3,-2.1 1.1,-1.4 1.6,-3.2 1.6,-5.5 v -0.3 c 0,-1.4 -0.3,-2.6 -0.8,-3.7 -0.5,-1.1 -1.2,-2 -2.2,-2.7 -1,-0.6 -2,-1 -3.1,-1 -1.7,0 -3.2,0.7 -4.3,2.1 -1.1,1.4 -1.6,3.2 -1.6,5.5 z"
         id="path3837" />
      <path
         style="fill:#177dbc"
         inkscape:connector-curvature="0"
         class="st0"
         d="m 252.69534,684.847 c -0.4,-0.1 -0.9,-0.1 -1.3,-0.1 -1.2,0 -2.3,0.3 -3.1,1 -0.9,0.7 -1.5,1.6 -1.8,3 v 12.3 h -2.1 v -17.9 h 1.9 v 2.9 c 1,-2.2 2.8,-3.2 5,-3.2 0.5,0 1,0.1 1.3,0.2 z"
         id="path3839" />
      <path
         style="fill:#177dbc"
         inkscape:connector-curvature="0"
         class="st0"
         d="m 261.79534,698.247 5.2,-15.1 h 2.2 l -7.6,21 -0.4,1 c -1,2.2 -2.5,3.3 -4.6,3.3 -0.4,0 -1,-0.1 -1.6,-0.3 v -1.6 l 1,0.1 c 1,0 1.7,-0.3 2.3,-0.7 0.6,-0.5 1.1,-1.3 1.6,-2.5 l 0.9,-2.4 -6.8,-17.8 h 2.2 z"
         id="path3841" />
    </g>
  </g>
  <style
     id="style3713"
     type="text/css">
	.st0{fill:#177DBC;}
</style>
</svg>
