<?xml version="1.0" encoding="UTF-8" standalone="no"?>
<!-- Created with Inkscape (http://www.inkscape.org/) -->

<svg
   xmlns:dc="http://purl.org/dc/elements/1.1/"
   xmlns:cc="http://creativecommons.org/ns#"
   xmlns:rdf="http://www.w3.org/1999/02/22-rdf-syntax-ns#"
   xmlns:svg="http://www.w3.org/2000/svg"
   xmlns="http://www.w3.org/2000/svg"
   xmlns:sodipodi="http://sodipodi.sourceforge.net/DTD/sodipodi-0.dtd"
   xmlns:inkscape="http://www.inkscape.org/namespaces/inkscape"
   width="200"
   height="200"
   viewBox="0 0 52.916665 52.916668"
   version="1.1"
   id="svg8"
   inkscape:version="0.92.4 (5da689c313, 2019-01-14)"
   sodipodi:docname="laboratory-logo-icon.svg">
  <defs
     id="defs2" />
  <sodipodi:namedview
     id="base"
     pagecolor="#ffffff"
     bordercolor="#666666"
     borderopacity="1.0"
     inkscape:pageopacity="0.0"
     inkscape:pageshadow="2"
     inkscape:zoom="2.8"
     inkscape:cx="100.49551"
     inkscape:cy="117.82123"
     inkscape:document-units="mm"
     inkscape:current-layer="layer1"
     showgrid="false"
     inkscape:window-width="1920"
     inkscape:window-height="1017"
     inkscape:window-x="1072"
     inkscape:window-y="-8"
     inkscape:window-maximized="1"
     units="px" />
  <metadata
     id="metadata5">
    <rdf:RDF>
      <cc:Work
         rdf:about="">
        <dc:format>image/svg+xml</dc:format>
        <dc:type
           rdf:resource="http://purl.org/dc/dcmitype/StillImage" />
        <dc:title></dc:title>
      </cc:Work>
    </rdf:RDF>
  </metadata>
  <g
     inkscape:label="Layer 1"
     inkscape:groupmode="layer"
     id="layer1"
     transform="translate(0,-244.08332)">
    <g
       id="g3767"
       transform="matrix(0.31669823,0,0,0.31669823,-2.475228,241.42204)">
	<g
   id="g3765">
		<path
   style="fill:#177dbc"
   inkscape:connector-curvature="0"
   class="st0"
   d="m 87.3,95.7 c -9.8,0 -17.7,-8 -17.7,-17.7 0,-9.7 8,-17.7 17.7,-17.7 9.7,0 17.7,7.9 17.7,17.7 0,9.8 -7.9,17.7 -17.7,17.7 m 28,-45.5 h -28 c -15,0 -27.2,12.9 -27.2,27.9 0,15 12.5,27.5 27.5,27.5 0.1,0 16.4,-0.4 16.2,8.7 -0.1,5.7 -18.1,17.4 -18.1,17.4 v 10.6 c 0,0 26.3,-15.2 28.8,-27.2 2.3,-10.8 -8.3,-14.3 -10.1,-15.2 6.2,-5 10.1,-13.5 10.1,-22 0,-7 -2.7,-12.1 -7,-19 h 7.8 z"
   id="path3715" />

		<path
   style="fill:#177dbc"
   inkscape:connector-curvature="0"
   class="st0"
   d="m 41.8,37.9 c 1.6,-1.5 3.3,-2.9 5.1,-4.3 l -5.6,-7.7 c -2.1,1.6 -4.1,3.3 -6.1,5.1 z"
   id="path3717" />

		<path
   style="fill:#177dbc"
   inkscape:connector-curvature="0"
   class="st0"
   d="m 49.7,31.6 c 1.8,-1.3 3.7,-2.4 5.6,-3.5 l -4.5,-8.4 c -2.3,1.3 -4.5,2.7 -6.7,4.2 z"
   id="path3719" />

		<path
   style="fill:#177dbc"
   inkscape:connector-curvature="0"
   class="st0"
   d="m 33.3,47.3 c 1.9,-2.4 3.9,-4.7 6,-6.9 l -6.6,-6.9 c -2.5,2.6 -4.9,5.3 -7.1,8.1 z"
   id="path3721" />

		<path
   style="fill:#177dbc"
   inkscape:connector-curvature="0"
   class="st0"
   d="m 18.8,83.1 c 0.4,-3.7 1.1,-7.4 2.1,-11 l -9.2,-2.8 c -1.2,4.2 -2,8.4 -2.5,12.8 z"
   id="path3723" />

		<path
   style="fill:#177dbc"
   inkscape:connector-curvature="0"
   class="st0"
   d="m 27.2,56.5 c 1.2,-2.2 2.6,-4.4 4,-6.5 l -7.7,-5.6 c -1.7,2.5 -3.3,5.1 -4.8,7.7 z"
   id="path3725" />

		<path
   style="fill:#177dbc"
   inkscape:connector-curvature="0"
   class="st0"
   d="m 21.9,68.8 c 1,-3.2 2.3,-6.2 3.7,-9.2 l -8.5,-4.4 c -1.7,3.5 -3.2,7.1 -4.4,10.8 z"
   id="path3727" />

		<path
   style="fill:#177dbc"
   inkscape:connector-curvature="0"
   class="st0"
   d="m 58.3,26.4 c 5.5,-2.8 11.4,-4.9 17.5,-6.2 L 74,10.8 c -7.1,1.5 -13.9,4 -20.2,7.2 z"
   id="path3729" />

		<path
   style="fill:#177dbc"
   inkscape:connector-curvature="0"
   class="st0"
   d="m 148.3,136.8 c -3.9,4.9 -8.5,9.4 -13.6,13.2 l 5.5,7.8 c 5.9,-4.3 11.1,-9.5 15.7,-15.2 z"
   id="path3731" />

		<path
   style="fill:#177dbc"
   inkscape:connector-curvature="0"
   class="st0"
   d="m 77.5,10.2 1.8,9.4 c 2.6,-0.4 5.2,-0.7 7.8,-0.9 L 86.8,9.1 c -3.2,0.2 -6.3,0.6 -9.3,1.1"
   id="path3733" />

		<path
   style="fill:#177dbc"
   inkscape:connector-curvature="0"
   class="st0"
   d="m 164.1,91.5 c 0,7.4 -1.1,14.5 -3.2,21.3 l 9.1,3 c 2.4,-7.7 3.6,-15.8 3.6,-24.3 0,-0.1 0,-0.2 0,-0.3 l -9.5,0.3 v 0"
   id="path3735" />

		<path
   style="fill:#177dbc"
   inkscape:connector-curvature="0"
   class="st0"
   d="m 168.8,63.4 -8.9,3.5 c 2.4,6.6 3.9,13.7 4.2,21.1 l 9.6,-0.2 C 173.2,79.2 171.5,71 168.8,63.4"
   id="path3737" />

		<path
   style="fill:#177dbc"
   inkscape:connector-curvature="0"
   class="st0"
   d="m 146.2,43.7 c 5.1,5.9 9.4,12.6 12.4,19.9 l 8.9,-3.5 C 164,51.7 159.2,43.9 153.2,37.2 Z"
   id="path3739" />

		<path
   style="fill:#177dbc"
   inkscape:connector-curvature="0"
   class="st0"
   d="m 121.3,25.1 c 8.5,3.9 16.1,9.3 22.5,16 l 7.1,-6.5 C 143.6,26.9 134.8,20.7 125.1,16.3 Z"
   id="path3741" />

		<path
   style="fill:#177dbc"
   inkscape:connector-curvature="0"
   class="st0"
   d="m 116.1,170.2 -3.1,-9.1 c -5.4,1.7 -11,2.7 -16.8,3.1 l 0.4,9.6 c 6.7,-0.4 13.3,-1.7 19.5,-3.6"
   id="path3743" />

		<path
   style="fill:#177dbc"
   inkscape:connector-curvature="0"
   class="st0"
   d="m 159.9,116.1 c -2.3,6.5 -5.5,12.5 -9.5,18 l 7.6,5.8 c 4.6,-6.3 8.3,-13.3 10.9,-20.7 z"
   id="path3745" />

		<path
   style="fill:#177dbc"
   inkscape:connector-curvature="0"
   class="st0"
   d="m 131.9,152 c -4.8,3.3 -10.1,6 -15.6,8 l 3.1,9.1 c 6.4,-2.3 12.5,-5.5 18.1,-9.3 z"
   id="path3747" />

		<path
   style="fill:#177dbc"
   inkscape:connector-curvature="0"
   class="st0"
   d="m 90.6,18.6 c 0.2,0 0.4,0 0.7,0 9.5,0 18.6,1.8 26.9,5.2 L 121.9,15 C 112.4,11.1 102,9 91.2,9 c -0.3,0 -0.6,0 -1,0 z"
   id="path3749" />

		<path
   style="fill:#177dbc"
   inkscape:connector-curvature="0"
   class="st0"
   d="m 18.3,91.5 c 0,-1.7 0.1,-3.3 0.2,-4.9 L 9,85.7 c -0.1,1.9 -0.2,3.8 -0.2,5.8 0,2.3 0.1,4.6 0.3,6.9 l 9.5,-1 c -0.2,-1.9 -0.3,-3.9 -0.3,-5.9"
   id="path3751" />

		<path
   style="fill:#177dbc"
   inkscape:connector-curvature="0"
   class="st0"
   d="m 92.7,164.4 c -0.5,0 -1,0 -1.5,0 -4.9,0 -9.6,-0.5 -14.2,-1.4 l -2.1,9.4 c 5.3,1.1 10.7,1.6 16.3,1.6 0.7,0 1.3,0 1.9,0 z"
   id="path3753" />

		<path
   style="fill:#177dbc"
   inkscape:connector-curvature="0"
   class="st0"
   d="m 21.6,113.3 c -1.3,-4 -2.2,-8.2 -2.7,-12.4 l -9.5,1 c 0.6,5 1.7,9.8 3.2,14.5 z"
   id="path3755" />

		<path
   style="fill:#177dbc"
   inkscape:connector-curvature="0"
   class="st0"
   d="m 28.6,128.8 c -2.3,-3.9 -4.3,-8 -5.8,-12.2 l -9.1,3.1 c 1.8,5 4.1,9.8 6.8,14.2 z"
   id="path3757" />

		<path
   style="fill:#177dbc"
   inkscape:connector-curvature="0"
   class="st0"
   d="m 54.7,154.6 c -4.6,-2.7 -8.9,-5.9 -12.8,-9.5 l -6.6,6.9 c 4.5,4.2 9.5,7.9 14.9,11 z"
   id="path3759" />

		<path
   style="fill:#177dbc"
   inkscape:connector-curvature="0"
   class="st0"
   d="m 39.3,142.7 c -3.3,-3.3 -6.3,-7 -8.9,-10.9 l -8.1,5.1 c 3,4.6 6.5,8.8 10.3,12.7 z"
   id="path3761" />

		<path
   style="fill:#177dbc"
   inkscape:connector-curvature="0"
   class="st0"
   d="m 73.6,162.3 c -5.6,-1.4 -10.9,-3.4 -15.9,-6 l -4.6,8.4 c 5.8,3 11.9,5.4 18.4,7 z"
   id="path3763" />

	</g>

</g>
  </g>
  <style
     id="style3713"
     type="text/css">
	.st0{fill:#177DBC;}
</style>
</svg>
